<?xml version="1.0" encoding="UTF-8"?>
<svg version="1.1" xmlns="http://www.w3.org/2000/svg" width="793" height="512">
<path d="M0 0 C261.69 0 523.38 0 793 0 C793 168.96 793 337.92 793 512 C531.31 512 269.62 512 0 512 C0 343.04 0 174.08 0 0 Z " fill="#FEFEFE" transform="translate(0,0)"/>
<path d="M0 0 C0.99 0.99 1.98 1.98 3 3 C3.33 -0.3 3.66 -3.6 4 -7 C12.25 -7 20.5 -7 29 -7 C29 24.35 29 55.7 29 88 C20.75 88 12.5 88 4 88 C3.67 84.37 3.34 80.74 3 77 C2.319375 77.721875 1.63875 78.44375 0.9375 79.1875 C-7.27677652 87.37850662 -15.3114345 89.96710167 -26.875 90.1875 C-39.41557617 90.01613809 -49.91024872 85.68599659 -59.15625 77.02734375 C-66.11570715 69.37488981 -69.4716821 60.909375 -72 51 C-72.19207031 50.35804688 -72.38414062 49.71609375 -72.58203125 49.0546875 C-75.28978338 35.74368172 -71.85843933 22.43144899 -64.55078125 11.20703125 C-64.03902344 10.47871094 -63.52726562 9.75039062 -63 9 C-62.56042969 8.36449219 -62.12085938 7.72898438 -61.66796875 7.07421875 C-55.65662523 -0.73879545 -45.7866383 -6.26388323 -36.3125 -8.6875 C-22.55683283 -9.98520445 -11.394384 -8.16314078 0 0 Z " fill="#FF6980" transform="translate(324,159)"/>
<path d="M0 0 C8.25 0 16.5 0 25 0 C25.33 17.16 25.66 34.32 26 52 C27.65 50.35 29.3 48.7 31 47 C39.17821339 39.90971408 47.52344756 38.40603887 58.2109375 38.65234375 C68.29513562 39.57759492 76.98864978 43.24277439 83.6796875 50.9296875 C91.5206436 61.57934429 92.59007606 73.66683642 92.390625 86.48828125 C92.38314101 87.92700911 92.37745832 89.36574733 92.37347412 90.80448914 C92.35838694 94.54468202 92.31925785 98.28422814 92.2746582 102.02416992 C92.23333416 105.8591233 92.21538485 109.69418381 92.1953125 113.52929688 C92.15274137 121.01985669 92.08253714 128.50975441 92 136 C83.75 136 75.5 136 67 136 C66.9906543 134.22431641 66.98130859 132.44863281 66.97167969 130.61914062 C66.93604313 124.72770103 66.88217598 118.83657669 66.81609726 112.94541168 C66.77672284 109.37635052 66.74448584 105.80753236 66.72900391 102.23828125 C66.7137702 98.78851111 66.67920863 95.33940947 66.63169098 91.88993835 C66.60980909 89.94483638 66.60753204 87.99954543 66.60565186 86.05432129 C66.47580744 78.14826829 65.8260006 72.17381884 60.28125 66.125 C54.39166436 62.4052617 48.83782865 62.01527905 42 63 C34.93523992 65.0833477 30.93947795 69.50610705 27.39526367 75.89086914 C25.14627885 81.32961796 25.51942328 87.13982613 25.48828125 92.93359375 C25.47033005 94.16666763 25.45237885 95.39974152 25.43388367 96.67018127 C25.37988045 100.5925865 25.34591579 104.5148707 25.3125 108.4375 C25.28094323 111.10356137 25.24482796 113.76953685 25.20898438 116.43554688 C25.12170627 122.95704774 25.0615483 129.47800285 25 136 C16.75 136 8.5 136 0 136 C0 91.12 0 46.24 0 0 Z " fill="#FF6A80" transform="translate(449,111)"/>
<path d="M0 0 C8.25 0 16.5 0 25 0 C25.33 16.83 25.66 33.66 26 51 C29.3 48.36 32.6 45.72 36 43 C46.48606663 37.94647391 57.22953182 37.25694896 68.4375 40.625 C77.57255327 44.14414133 83.46577363 49.31972873 88 58 C91.81869771 67.42693937 92.54987576 76.19776737 92.390625 86.26953125 C92.38314054 87.68583873 92.37745808 89.10215674 92.37347412 90.51847839 C92.35839056 94.19949254 92.31926494 97.87984901 92.2746582 101.56060791 C92.23332604 105.33523671 92.21538317 109.1099745 92.1953125 112.88476562 C92.15274781 120.25684128 92.08254691 127.62824375 92 135 C83.75 135 75.5 135 67 135 C66.9906543 133.25460938 66.98130859 131.50921875 66.97167969 129.7109375 C66.93603965 123.91927944 66.88217036 118.12794194 66.81609726 112.33656311 C66.77672684 108.82803584 66.74448793 105.3197556 66.72900391 101.81103516 C66.71084656 97.76945442 66.66085047 93.72879476 66.609375 89.6875 C66.60814636 88.4382373 66.60691772 87.18897461 66.60565186 85.90185547 C66.47463505 78.05744181 65.78215193 72.12598392 60.28125 66.125 C54.39166436 62.4052617 48.83782865 62.01527905 42 63 C34.93523992 65.0833477 30.93947795 69.50610705 27.39526367 75.89086914 C25.14627885 81.32961796 25.51942328 87.13982613 25.48828125 92.93359375 C25.47033005 94.16666763 25.45237885 95.39974152 25.43388367 96.67018127 C25.37988045 100.5925865 25.34591579 104.5148707 25.3125 108.4375 C25.28094323 111.10356137 25.24482796 113.76953685 25.20898438 116.43554688 C25.12170627 122.95704774 25.0615483 129.47800285 25 136 C16.75 136 8.5 136 0 136 C0 91.12 0 46.24 0 0 Z " fill="#FF6980" transform="translate(552,111)"/>
<path d="M0 0 C8.91 0 17.82 0 27 0 C29.06571199 4.54023056 31.12887838 9.08155542 33.1875 13.625 C33.49835541 14.31096252 33.80921082 14.99692505 34.12948608 15.70367432 C39.55280816 27.68393945 44.82583929 39.72457658 49.9987793 51.81494141 C50.51093994 53.00780762 51.02310059 54.20067383 51.55078125 55.4296875 C52.22620972 57.01112549 52.22620972 57.01112549 52.9152832 58.62451172 C53.79014466 60.90664711 53.79014466 60.90664711 55 62 C57.59725799 55.7240595 60.19312266 49.44754395 62.78808594 43.1706543 C63.66831016 41.04194551 64.54883616 38.91336147 65.4296875 36.78491211 C66.70655294 33.69939579 67.98248747 30.61349707 69.2578125 27.52734375 C69.67081604 26.52818939 70.08381958 25.52903503 70.50933838 24.49960327 C73.38163886 17.53644406 76.18986281 10.55078296 78.93701172 3.53735352 C80 1 80 1 81 0 C82.92667507 -0.08748207 84.85651861 -0.10697334 86.78515625 -0.09765625 C87.95498047 -0.09443359 89.12480469 -0.09121094 90.33007812 -0.08789062 C91.56177734 -0.07951172 92.79347656 -0.07113281 94.0625 -0.0625 C95.91584961 -0.05573242 95.91584961 -0.05573242 97.80664062 -0.04882812 C100.87114117 -0.03699608 103.93554721 -0.02051173 107 0 C105.10157635 5.97217896 102.94082391 11.74128283 100.4375 17.484375 C100.09407562 18.28101563 99.75065125 19.07765625 99.39682007 19.8984375 C98.65546485 21.61748373 97.91252745 23.33584835 97.16815186 25.05358887 C95.13767094 29.74048921 93.12028667 34.43302674 91.1015625 39.125 C90.68137848 40.10088074 90.26119446 41.07676147 89.82827759 42.08221436 C85.29587043 52.61789781 80.83024085 63.18150124 76.375 73.75 C75.98428314 74.6765036 75.59356628 75.6030072 75.19100952 76.55758667 C72.84914125 82.11134335 70.50917539 87.66589927 68.17022705 93.22088623 C66.98338372 96.03946118 65.79618854 98.85788769 64.60888672 101.67626953 C60.07033057 112.44989574 55.53409255 123.22449453 51 134 C42.75 134 34.5 134 26 134 C26.84845761 128.90925433 28.10351942 125.04093426 30.1953125 120.44140625 C30.83522155 118.98919043 31.47452616 117.53670814 32.11328125 116.08398438 C33.11811129 113.8185717 34.12801821 111.55582382 35.14892578 109.29760742 C36.13798197 107.10196 37.10537944 104.89774054 38.0703125 102.69140625 C38.37856964 102.02452286 38.68682678 101.35763947 39.00442505 100.67054749 C41.56547107 94.7489836 41.05139433 90.69345502 38.74755859 84.79150391 C38.21984863 83.69757324 37.69213867 82.60364258 37.1484375 81.4765625 C36.85769852 80.86592453 36.56695953 80.25528656 36.26741028 79.62614441 C35.6394831 78.30957626 35.00735573 76.99500461 34.37142944 75.68228149 C32.6492828 72.12664548 30.95807096 68.55627499 29.26171875 64.98828125 C28.90948746 64.24972397 28.55725616 63.51116669 28.1943512 62.75022888 C24.41912177 54.81897392 20.79967216 46.81897868 17.1875 38.8125 C12.51537439 28.46650658 7.77659051 18.16264947 2.79174805 7.9621582 C0 2.20579659 0 2.20579659 0 0 Z " fill="#FF6980" transform="translate(149,152)"/>
<path d="M0 0 C6.5605243 4.96062732 10.64786639 9.54098578 14 17 C10.92209798 18.03774122 7.83699754 19.05216917 4.75 20.0625 C3.87730469 20.35705078 3.00460937 20.65160156 2.10546875 20.95507812 C1.26113281 21.22900391 0.41679687 21.50292969 -0.453125 21.78515625 C-1.22817383 22.04176025 -2.00322266 22.29836426 -2.80175781 22.56274414 C-5.27937717 23.05557136 -6.65967845 22.92577599 -9 22 C-9.556875 21.236875 -10.11375 20.47375 -10.6875 19.6875 C-14.51234375 15.24241132 -19.06253586 13.36165769 -24.85546875 12.6484375 C-29.9953856 12.49583538 -33.89978526 12.56111022 -38 16 C-38.66 16.66 -39.32 17.32 -40 18 C-39.67673447 21.59679066 -39.67673447 21.59679066 -39 25 C-32.32889873 27.82105032 -25.67668845 30.05582042 -18.6875 31.9375 C8.2177902 39.44512404 8.2177902 39.44512404 15 51 C17.08984134 57.26952402 17.07912568 65.3520288 15.19921875 71.70703125 C10.47507581 80.97674128 2.4115097 86.32466753 -7.0078125 90.08984375 C-21.72338242 94.56598969 -37.20671968 92.65028963 -50.75 85.75 C-59.98676238 80.18077562 -66.56170898 73.31487306 -70 63 C-65.64125108 61.30493098 -61.27403441 59.717181 -56.8125 58.3125 C-56.01457031 58.06113281 -55.21664063 57.80976563 -54.39453125 57.55078125 C-51.7566595 56.94402772 -49.69136402 56.63787295 -47 57 C-45.62890625 58.609375 -45.62890625 58.609375 -44.5625 60.75 C-41.65306702 65.88002824 -38.3470013 68.06119948 -32.875 70.25 C-26.25447361 71.5313922 -19.74929508 72.04283607 -13.375 69.625 C-10.95008852 68.07294755 -10.95008852 68.07294755 -9 66 C-8.33292452 62.58500409 -8.33292452 62.58500409 -9 59 C-12.97971148 55.83648683 -16.93795724 54.1077004 -21.75 52.5625 C-22.38760254 52.35423584 -23.02520508 52.14597168 -23.68212891 51.93139648 C-27.3163253 50.76679179 -30.96779683 49.73018777 -34.6640625 48.78125 C-47.24837294 45.54539598 -56.97909606 41.69573151 -64.1328125 30.17578125 C-66.29997581 24.73834898 -65.94432665 17.84984292 -64.125 12.359375 C-59.41615003 3.25146781 -50.99146475 -2.37700013 -41.5 -5.75 C-27.97866533 -9.51621651 -11.81951728 -7.64464854 0 0 Z " fill="#FF687F" transform="translate(426,157)"/>
<path d="M0 0 C6.06372282 3.75607122 10.21915886 8.04091954 12.515625 14.9609375 C14.16043714 23.8367162 14.03907372 33.52285713 8.9296875 41.1953125 C3.47968939 47.85642131 -3.14067258 51.55771681 -11.61328125 52.46875 C-19.64750663 52.77730223 -25.83479748 50.95723618 -31.921875 45.55078125 C-38.66157756 38.19686934 -39.73706304 30.8693133 -39.40625 21.14453125 C-38.62204932 11.925614 -35.43447566 6.78137544 -28.484375 0.7890625 C-20.15001721 -4.71323196 -8.71329406 -4.56410641 0 0 Z " fill="#FFFDFE" transform="translate(315.0703125,174.8046875)"/>
<path d="M0 0 C1.9375 0.375 1.9375 0.375 4 1 C6.36300626 5.72601253 5.54407374 11.33732689 3.953125 16.19921875 C3.06622969 18.40341444 2.16378954 20.60141762 1.24609375 22.79296875 C-0.43212977 27.11215842 -1.30902907 31.43134147 -2 36 C2.00810969 33.88460877 4.33205955 31.64618528 7 28 C7.5775 27.236875 8.155 26.47375 8.75 25.6875 C9.1625 25.130625 9.575 24.57375 10 24 C11.65 24.33 13.3 24.66 15 25 C14.25 30.75 14.25 30.75 12 33 C14.36326675 33.32919417 14.36326675 33.32919417 17 33 C18.85734664 31.31593871 18.85734664 31.31593871 20.25 29.0625 C20.75015625 28.33160156 21.2503125 27.60070312 21.765625 26.84765625 C22.17296875 26.23792969 22.5803125 25.62820313 23 25 C24 24 24 24 27.0625 23.9375 C28.5165625 23.9684375 28.5165625 23.9684375 30 24 C30 24.66 30 25.32 30 26 C27.69 26.66 25.38 27.32 23 28 C23 29.65 23 31.3 23 33 C26.11332248 32.33131686 26.11332248 32.33131686 27.1875 29.9375 C27.455625 29.298125 27.72375 28.65875 28 28 C28.66 28.33 29.32 28.66 30 29 C30.625 31.0625 30.625 31.0625 31 33 C32.97536745 32.65213292 32.97536745 32.65213292 35 32 C36.11823815 29.76352369 36.19396061 28.35108471 36.31640625 25.8671875 C36.37924805 24.65869141 36.37924805 24.65869141 36.44335938 23.42578125 C36.48267578 22.58402344 36.52199219 21.74226563 36.5625 20.875 C36.62727539 19.60076172 36.62727539 19.60076172 36.69335938 18.30078125 C36.79954236 16.20071777 36.90028497 14.10038052 37 12 C34.03 12 31.06 12 28 12 C28 11.34 28 10.68 28 10 C29.04800781 9.94392578 29.04800781 9.94392578 30.1171875 9.88671875 C31.02726563 9.82097656 31.93734375 9.75523437 32.875 9.6875 C34.23238281 9.60048828 34.23238281 9.60048828 35.6171875 9.51171875 C38.36221601 9.2117961 38.36221601 9.2117961 40 6 C40.99 6 41.98 6 43 6 C43.495 7.98 43.495 7.98 44 10 C48.29 10 52.58 10 57 10 C57 10.66 57 11.32 57 12 C52.71 12 48.42 12 44 12 C44.061875 12.99 44.12375 13.98 44.1875 15 C44.21240477 18.07573962 43.62163028 20.29385216 42.4375 23.125 C41.0522567 26.45217317 40.79228408 28.4866446 42 32 C43.32 32 44.64 32 46 32 C48.22467373 29.60419752 49.62901008 26.95290136 51 24 C51.66 24 52.32 24 53 24 C52.67 26.97 52.34 29.94 52 33 C52.99 33 53.98 33 55 33 C55.99 30.03 56.98 27.06 58 24 C58.33 24 58.66 24 59 24 C59.495 28.455 59.495 28.455 60 33 C61.32 32.67 62.64 32.34 64 32 C65.79271391 28.51202512 65.79271391 28.51202512 67 25 C66.34 25 65.68 25 65 25 C65.3125 23.0625 65.3125 23.0625 66 21 C66.99 20.67 67.98 20.34 69 20 C69.45375 20.474375 69.9075 20.94875 70.375 21.4375 C71.93258204 23.09027808 71.93258204 23.09027808 74 24 C74 27.3 74 30.6 74 34 C76.93375101 33.32942834 78.61941083 32.5040235 80.4453125 30.0859375 C81.6840771 28.08267818 82.87054327 26.06666551 84 24 C85.65 24.33 87.3 24.66 89 25 C89.75 26.6875 89.75 26.6875 90 29 C88.0625 31.75 88.0625 31.75 86 34 C89.45251517 33.15605185 91.49298036 32.63377455 93.75 29.8125 C95.17662754 26.60258804 96.13310364 23.40090111 97 20 C97.66 20 98.32 20 99 20 C100.33583899 24.84241633 101.25328119 28.93437617 101 34 C104.36591866 32.55746343 106.51047079 30.66735273 109 28 C108.45440934 31.81913463 107.0538034 33.66946583 104 36 C100.25 36.75 100.25 36.75 97 37 C96.01 35.02 96.01 35.02 95 33 C96.32 33 97.64 33 99 33 C98.67 31.35 98.34 29.7 98 28 C97.47212891 28.86625 97.47212891 28.86625 96.93359375 29.75 C95.41245181 32.03767038 93.94212147 34.05363809 92 36 C88.3125 36.6875 88.3125 36.6875 85 36 C83.0625 34.5 83.0625 34.5 82 33 C81.608125 33.495 81.21625 33.99 80.8125 34.5 C79 36 79 36 76.4375 36.3125 C74 36 74 36 72 34 C71.73008094 31.31160615 71.91262643 28.70858064 72 26 C71.01 26 70.02 26 69 26 C68.9175 26.721875 68.835 27.44375 68.75 28.1875 C67.85249799 31.55313254 66.2885722 33.41612816 64 36 C63.236875 35.835 62.47375 35.67 61.6875 35.5 C57.84239516 34.78463166 54.78199007 35.18227242 51 36 C50.67 35.01 50.34 34.02 50 33 C49.443125 33.515625 48.88625 34.03125 48.3125 34.5625 C46 36 46 36 43.4375 35.875 C40.8872598 34.95952916 39.7075159 34.06699293 38 32 C36.88625 33.0209375 36.88625 33.0209375 35.75 34.0625 C33 36 33 36 30.8125 35.75 C30.214375 35.5025 29.61625 35.255 29 35 C26.90349583 34.91720822 26.90349583 34.91720822 24.5625 35.625 C22 36 22 36 19 34 C18.34 34.66 17.68 35.32 17 36 C13.49662019 36.38080215 11.63721374 36.40245078 8.625 34.5 C8.08875 34.005 7.5525 33.51 7 33 C4.03 35.475 4.03 35.475 1 38 C1.28875 38.72445312 1.5775 39.44890625 1.875 40.1953125 C6.33891213 51.82008368 6.33891213 51.82008368 4 57.375 C3.67 57.91125 3.34 58.4475 3 59 C1.35 59 -0.3 59 -2 59 C-2.98943603 56.03169191 -3.13775395 54.04831752 -3.16113281 50.94946289 C-3.17074036 49.92152115 -3.1803479 48.89357941 -3.19024658 47.83448792 C-3.19449646 46.72508347 -3.19874634 45.61567902 -3.203125 44.47265625 C-3.20882507 43.33219345 -3.21452515 42.19173065 -3.22039795 41.01670837 C-3.22984805 38.60335214 -3.23638197 36.18998299 -3.24023438 33.77661133 C-3.24995224 30.08066413 -3.28098127 26.38527007 -3.3125 22.68945312 C-3.31902882 20.34635747 -3.32427977 18.00325784 -3.328125 15.66015625 C-3.3404718 14.55277603 -3.3528186 13.44539581 -3.36553955 12.30445862 C-3.36253845 11.27336472 -3.35953735 10.24227081 -3.35644531 9.17993164 C-3.36009094 8.27408829 -3.36373657 7.36824493 -3.36749268 6.43495178 C-2.93205458 3.54980374 -1.90787003 2.16419254 0 0 Z " fill="#676061" transform="translate(485,325)"/>
<path d="M0 0 C3 1 3 1 4 3 C7.04581269 3.46954261 7.04581269 3.46954261 10.5625 3.625 C11.76003906 3.69976562 12.95757812 3.77453125 14.19140625 3.8515625 C15.11824219 3.90054687 16.04507813 3.94953125 17 4 C17 4.66 17 5.32 17 6 C12.71 6 8.42 6 4 6 C3.87625 7.546875 3.7525 9.09375 3.625 10.6875 C3.25423104 14.50265882 2.51287629 17.46995532 1 21 C0.83201738 23.70886941 0.83201738 23.70886941 1 26 C2.32 26.33 3.64 26.66 5 27 C7.40072955 24.11912454 9.47291037 21.43595166 11 18 C11.91058531 21.07322544 12.08886184 23.80097361 12 27 C12.99 26.67 13.98 26.34 15 26 C15.80212628 24.12612784 15.80212628 24.12612784 16.1875 21.9375 C16.34605469 21.20402344 16.50460938 20.47054688 16.66796875 19.71484375 C16.83232422 18.86599609 16.83232422 18.86599609 17 18 C17.66 18 18.32 18 19 18 C19.33 20.97 19.66 23.94 20 27 C21.32 26.67 22.64 26.34 24 26 C25.74921364 22.25168506 26.2595451 19.91858475 25 16 C25.33 15.34 25.66 14.68 26 14 C26.99 14 27.98 14 29 14 C29 14.99 29 15.98 29 17 C31.475 17.99 31.475 17.99 34 19 C34 21.97 34 24.94 34 28 C38.28383762 26.6717914 39.9783526 25.17477484 42.3125 21.375 C43.08013672 20.14910156 43.08013672 20.14910156 43.86328125 18.8984375 C44.23839844 18.27195312 44.61351562 17.64546875 45 17 C45.99 17.33 46.98 17.66 48 18 C48.495 20.475 48.495 20.475 49 23 C50.32 21.35 51.64 19.7 53 18 C54.98 18.495 54.98 18.495 57 19 C57 21.97 57 24.94 57 28 C60.26460973 26.19587357 61.88929795 25.16605307 64 22 C64.38499891 20.34450469 64.72793135 18.6777567 65 17 C65.33 17 65.66 17 66 17 C66.495 21.95 66.495 21.95 67 27 C69.3852733 27.12815365 69.3852733 27.12815365 72 26 C73.19743254 23.99419242 74.06648386 21.98971906 74.91015625 19.8125 C76 18 76 18 78.12109375 17.25 C79.05115234 17.12625 79.05115234 17.12625 80 17 C80.99 19.97 80.99 19.97 82 23 C83.32 21.35 84.64 19.7 86 18 C87.98 18.495 87.98 18.495 90 19 C90 21.97 90 24.94 90 28 C94.46314155 25.76842922 96.36731043 23.17599036 99 19 C101.70879335 17.64560332 104.00933268 17.93498549 107 18 C107 18.66 107 19.32 107 20 C104.69 20.66 102.38 21.32 100 22 C100 23.65 100 25.3 100 27 C103.11332248 26.33131686 103.11332248 26.33131686 104.1875 23.9375 C104.455625 23.298125 104.72375 22.65875 105 22 C105.33 22 105.66 22 106 22 C106.495 25.96 106.495 25.96 107 30 C107.33773437 29.4225 107.67546875 28.845 108.0234375 28.25 C108.69246094 27.13625 108.69246094 27.13625 109.375 26 C110.03628906 24.88625 110.03628906 24.88625 110.7109375 23.75 C111.13632812 23.1725 111.56171875 22.595 112 22 C112.66 22 113.32 22 114 22 C112.89268071 25.32195787 111.80417996 27.21970054 109.4375 29.875 C105.92330486 34.52644196 106.42975461 39.82583633 106.24609375 45.44140625 C105.95376681 49.66854656 105.04963231 52.34630761 103 56 C98.125 55.125 98.125 55.125 97 54 C96.00245536 47.58721305 98.55386007 43.48498261 101.6875 37.96484375 C103.12342092 34.72120097 103.25009777 32.5065791 103 29 C102.401875 29.20625 101.80375 29.4125 101.1875 29.625 C99 30 99 30 96 28 C95.34 28.66 94.68 29.32 94 30 C89.44444444 29.44444444 89.44444444 29.44444444 88 28 C87.63239269 25.67182036 87.29758419 23.3381615 87 21 C85.02 23.97 83.04 26.94 81 30 C79.515 29.505 79.515 29.505 78 29 C78 26.03 78 23.06 78 20 C77.5875 20.9075 77.175 21.815 76.75 22.75 C75.07010033 25.86981368 73.80252856 27.85688992 71 30 C68.375 30.4375 68.375 30.4375 66 30 C65.01 28.515 65.01 28.515 64 27 C63.608125 27.515625 63.21625 28.03125 62.8125 28.5625 C61 30 61 30 58.375 29.75 C56 29 56 29 55 28 C54.63239269 25.67182036 54.29758419 23.3381615 54 21 C53.59007812 21.6496875 53.18015625 22.299375 52.7578125 22.96875 C52.21898437 23.8040625 51.68015625 24.639375 51.125 25.5 C50.59132813 26.3353125 50.05765625 27.170625 49.5078125 28.03125 C49.01023437 28.6809375 48.51265625 29.330625 48 30 C47.34 30 46.68 30 46 30 C45.505 25.545 45.505 25.545 45 21 C44.4225 21.928125 43.845 22.85625 43.25 23.8125 C41.2701425 26.61729813 40.00186343 28.40526005 37 30 C34.83031791 29.75203633 33.55766393 29.55766393 32 28 C31.85884839 25.32941149 31.95752893 22.67567762 32 20 C31.01 20 30.02 20 29 20 C28.938125 20.53625 28.87625 21.0725 28.8125 21.625 C27.61972618 25.11156962 25.43802834 27.24940393 23 30 C21.824375 29.7525 21.824375 29.7525 20.625 29.5 C17.79551774 28.961051 16.34635283 28.91119158 13.5625 29.625 C11 30 11 30 8 28 C7.34 28.66 6.68 29.32 6 30 C3.0625 30 3.0625 30 0 29 C-3.31303239 24.05356559 -3.3765243 19.8441968 -3.1875 14.125 C-3.17396484 13.34125 -3.16042969 12.5575 -3.14648438 11.75 C-3.11141789 9.83303218 -3.05762072 7.91642249 -3 6 C-5.97 6 -8.94 6 -12 6 C-12 5.34 -12 4.68 -12 4 C-8.7 4 -5.4 4 -2 4 C-1.34 2.68 -0.68 1.36 0 0 Z " fill="#686162" transform="translate(211,331)"/>
<path d="M0 0 C1.65 0.33 3.3 0.66 5 1 C7.7380034 9.21401021 4.97513448 16.2335847 2 24 C1.67 24.66 1.34 25.32 1 26 C0.75212983 30.14503661 0.75212983 30.14503661 2 34 C2.99 34 3.98 34 5 34 C5.66 31.36 6.32 28.72 7 26 C6.01 26 5.02 26 4 26 C4.33 27.32 4.66 28.64 5 30 C4.01 29.67 3.02 29.34 2 29 C2.33 27.35 2.66 25.7 3 24 C4.65 24.33 6.3 24.66 8 25 C8.66 26.98 9.32 28.96 10 31 C11.32 31 12.64 31 14 31 C15.32 28.69 16.64 26.38 18 24 C18.66 24 19.32 24 20 24 C19.67 26.97 19.34 29.94 19 33 C20.485 33.495 20.485 33.495 22 34 C22.66 30.7 23.32 27.4 24 24 C24.66 24 25.32 24 26 24 C26.33 26.97 26.66 29.94 27 33 C30.9047195 32.46106182 30.9047195 32.46106182 32.23828125 30.40625 C32.77001953 29.46265625 32.77001953 29.46265625 33.3125 28.5 C35.44383259 25.24305739 35.72897254 25.0666461 39.8125 24.0625 C41.3903125 24.0315625 41.3903125 24.0315625 43 24 C43.495 24.99 43.495 24.99 44 26 C41.69 26.66 39.38 27.32 37 28 C37 29.65 37 31.3 37 33 C37.99 32.67 38.98 32.34 40 32 C40.495 30.515 40.495 30.515 41 29 C41.66 29 42.32 29 43 29 C43.495 32.465 43.495 32.465 44 36 C48.25569915 28.96746187 48.25569915 28.96746187 50 21 C50.99 21 51.98 21 53 21 C54.45184478 25.53701494 55.23509196 29.18061476 55 34 C58.36720387 32.60667426 59.9859524 31.0210714 62 28 C62.66 28.33 63.32 28.66 64 29 C60.125 34.875 60.125 34.875 59 36 C51.70588235 36.23529412 51.70588235 36.23529412 48 35 C43.39318328 39.6890813 43.47714716 43.85826858 43.51171875 50.02929688 C43.4000731 55.3832134 42.21416989 57.92489175 39 62 C35.125 61.125 35.125 61.125 34 60 C33.21759741 52.82797627 35.35625909 48.12865275 39 42 C39.33 41.67 39.66 41.34 40 41 C40.04080783 39.00041636 40.04254356 36.99954746 40 35 C39.21625 35.20625 38.4325 35.4125 37.625 35.625 C36.75875 35.74875 35.8925 35.8725 35 36 C34.34 35.34 33.68 34.68 33 34 C32.01 34.66 31.02 35.32 30 36 C28 35.625 28 35.625 26 35 C23.04996794 34.86742176 23.04996794 34.86742176 20.5 35.6875 C19.2625 35.8421875 19.2625 35.8421875 18 36 C16.1875 34.5625 16.1875 34.5625 15 33 C14.67 33.33 14.34 33.66 14 34 C13.05125 33.95875 12.1025 33.9175 11.125 33.875 C8.00058878 33.64614033 8.00058878 33.64614033 6.4375 35.5625 C5.963125 36.036875 5.48875 36.51125 5 37 C2.3125 36.6875 2.3125 36.6875 0 36 C-2.69089986 29.33404648 -3.46735511 23.47002095 -3.375 16.3125 C-3.38660156 15.40177734 -3.39820313 14.49105469 -3.41015625 13.55273438 C-3.38712164 8.2662916 -2.88653231 4.6047063 0 0 Z " fill="#6C6667" transform="translate(337,325)"/>
<path d="M0 0 C1.32 0.33 2.64 0.66 4 1 C4 1.99 4 2.98 4 4 C8.29 4 12.58 4 17 4 C17 4.66 17 5.32 17 6 C12.71 6 8.42 6 4 6 C4.061875 7.155 4.12375 8.31 4.1875 9.5 C4.21061043 12.77012633 3.71358365 15.12040304 2.4375 18.125 C0.90743947 21.74280667 0.94029532 24.14652844 2 28 C4.45224694 27.89386164 4.45224694 27.89386164 7 27 C8.18391223 24.62374655 8.18391223 24.62374655 9 22 C10.625 20.1875 10.625 20.1875 12 19 C12.66 19.33 13.32 19.66 14 20 C13.34 20.66 12.68 21.32 12 22 C11.83312552 24.58354218 11.83312552 24.58354218 12 27 C13.65 27 15.3 27 17 27 C16.4740625 26.1646875 16.4740625 26.1646875 15.9375 25.3125 C14.78154007 22.46113217 15.19032562 20.91482778 16 18 C19.875 18.875 19.875 18.875 21 20 C21.04063832 21.66617115 21.042721 23.33388095 21 25 C21.61875 24.505 22.2375 24.01 22.875 23.5 C25 22 25 22 27 22 C26.4375 23.8125 26.4375 23.8125 25 26 C21.4375 27.6875 21.4375 27.6875 18 29 C17.505 29.495 17.505 29.495 17 30 C14.66055264 29.71269945 12.3260857 29.38063221 10 29 C10 28.34 10 27.68 10 27 C9.2575 27.515625 8.515 28.03125 7.75 28.5625 C5 30 5 30 2.875 29.875 C0.76693901 28.89123821 -0.48111881 27.74671337 -2 26 C-2.86625 26.99 -2.86625 26.99 -3.75 28 C-6 30 -6 30 -10 30 C-11.60725635 26.78548731 -11.05748185 23.56387464 -11 20 C-11.66 20 -12.32 20 -13 20 C-13.226875 20.721875 -13.45375 21.44375 -13.6875 22.1875 C-15.24831013 25.53209313 -17.3031287 27.51603959 -20 30 C-21.96822886 28.03177114 -21.66248381 24.65191291 -22 22 C-22.61875 22.94875 -23.2375 23.8975 -23.875 24.875 C-26 28 -26 28 -28 30 C-30.5 30.3125 -30.5 30.3125 -33 30 C-35.20914 26.68629 -35.22481553 25.6553979 -35.125 21.8125 C-35.10695313 20.91144531 -35.08890625 20.01039063 -35.0703125 19.08203125 C-35.04710937 18.39496094 -35.02390625 17.70789063 -35 17 C-34.34 17 -33.68 17 -33 17 C-32.67 20.3 -32.34 23.6 -32 27 C-30.68 27 -29.36 27 -28 27 C-26.29917297 24.78610944 -26.29917297 24.78610944 -24.9375 22 C-23.46484375 19.1875 -23.46484375 19.1875 -22 17 C-21.01 17 -20.02 17 -19 17 C-18.67 19.64 -18.34 22.28 -18 25 C-17.13375 23.5459375 -17.13375 23.5459375 -16.25 22.0625 C-14 19 -14 19 -11.75 18.125 C-11.1725 18.08375 -10.595 18.0425 -10 18 C-8.39274365 21.21451269 -8.94251815 24.43612536 -9 28 C-5.87802522 26.6910428 -5.87802522 26.6910428 -4 24 C-3.84995027 22.6265365 -3.75161994 21.2471474 -3.68359375 19.8671875 C-3.64169922 19.06152344 -3.59980469 18.25585938 -3.55664062 17.42578125 C-3.51732422 16.58402344 -3.47800781 15.74226563 -3.4375 14.875 C-3.39431641 14.02550781 -3.35113281 13.17601562 -3.30664062 12.30078125 C-3.20045764 10.20071777 -3.09971503 8.10038052 -3 6 C-5.97 6 -8.94 6 -12 6 C-12 5.34 -12 4.68 -12 4 C-10.95199219 3.94392578 -10.95199219 3.94392578 -9.8828125 3.88671875 C-8.97273438 3.82097656 -8.06265625 3.75523437 -7.125 3.6875 C-5.76761719 3.60048828 -5.76761719 3.60048828 -4.3828125 3.51171875 C-1.63778399 3.2117961 -1.63778399 3.2117961 0 0 Z " fill="#6C6567" transform="translate(445,331)"/>
<path d="M0 0 C1.9375 0.375 1.9375 0.375 4 1 C6.36300626 5.72601253 5.54407374 11.33732689 3.953125 16.19921875 C3.06622969 18.40341444 2.16378954 20.60141762 1.24609375 22.79296875 C-0.43212977 27.11215842 -1.30902907 31.43134147 -2 36 C2.00810969 33.88460877 4.33205955 31.64618528 7 28 C7.5775 27.236875 8.155 26.47375 8.75 25.6875 C9.1625 25.130625 9.575 24.57375 10 24 C11.65 24.33 13.3 24.66 15 25 C14.5020163 28.73487777 14.12508244 30.81237635 12 34 C11.29875 33.731875 10.5975 33.46375 9.875 33.1875 C6.53988725 32.96999265 6.13449613 33.36830612 3.6875 35.4375 C2.3571875 36.7059375 2.3571875 36.7059375 1 38 C1.28875 38.72445312 1.5775 39.44890625 1.875 40.1953125 C6.33891213 51.82008368 6.33891213 51.82008368 4 57.375 C3.67 57.91125 3.34 58.4475 3 59 C1.35 59 -0.3 59 -2 59 C-2.98943603 56.03169191 -3.13775395 54.04831752 -3.16113281 50.94946289 C-3.17074036 49.92152115 -3.1803479 48.89357941 -3.19024658 47.83448792 C-3.19449646 46.72508347 -3.19874634 45.61567902 -3.203125 44.47265625 C-3.20882507 43.33219345 -3.21452515 42.19173065 -3.22039795 41.01670837 C-3.22984805 38.60335214 -3.23638197 36.18998299 -3.24023438 33.77661133 C-3.24995224 30.08066413 -3.28098127 26.38527007 -3.3125 22.68945312 C-3.31902882 20.34635747 -3.32427977 18.00325784 -3.328125 15.66015625 C-3.3404718 14.55277603 -3.3528186 13.44539581 -3.36553955 12.30445862 C-3.36253845 11.27336472 -3.35953735 10.24227081 -3.35644531 9.17993164 C-3.36009094 8.27408829 -3.36373657 7.36824493 -3.36749268 6.43495178 C-2.93205458 3.54980374 -1.90787003 2.16419254 0 0 Z " fill="#60585A" transform="translate(485,325)"/>
<path d="M0 0 C0 0.66 0 1.32 0 2 C-2.31 2.66 -4.62 3.32 -7 4 C-7 5.65 -7 7.3 -7 9 C-3.88667752 8.33131686 -3.88667752 8.33131686 -2.8125 5.9375 C-2.544375 5.298125 -2.27625 4.65875 -2 4 C-1.67 4 -1.34 4 -1 4 C-0.67 6.64 -0.34 9.28 0 12 C0.33773438 11.4225 0.67546875 10.845 1.0234375 10.25 C1.46945312 9.5075 1.91546875 8.765 2.375 8 C2.81585938 7.2575 3.25671875 6.515 3.7109375 5.75 C4.13632812 5.1725 4.56171875 4.595 5 4 C5.66 4 6.32 4 7 4 C5.89268071 7.32195787 4.80417996 9.21970054 2.4375 11.875 C-1.07669514 16.52644196 -0.57024539 21.82583633 -0.75390625 27.44140625 C-1.04623319 31.66854656 -1.95036769 34.34630761 -4 38 C-8.875 37.125 -8.875 37.125 -10 36 C-10.99754464 29.58721305 -8.44613993 25.48498261 -5.3125 19.96484375 C-3.87657908 16.72120097 -3.74990223 14.5065791 -4 11 C-5.32 11.33 -6.64 11.66 -8 12 C-8.28875 11.360625 -8.5775 10.72125 -8.875 10.0625 C-9.82823451 7.84793921 -9.82823451 7.84793921 -12 7 C-8.18195609 1.01839787 -7.0826165 -0.15396992 0 0 Z " fill="#635C5E" transform="translate(318,349)"/>
<path d="M0 0 C1.65 0.33 3.3 0.66 5 1 C7.43895447 8.3168634 5.53411682 13.94746163 3.0234375 20.9453125 C1.58932684 25.22574965 0.74735631 29.5551967 0 34 C-4.34334914 29.65665086 -3.21805299 22.34091542 -3.25 16.5625 C-3.270625 15.63373047 -3.29125 14.70496094 -3.3125 13.74804688 C-3.34309584 8.37465218 -2.9671511 4.67716714 0 0 Z " fill="#645D5E" transform="translate(337,325)"/>
<path d="M0 0 C3 1 3 1 4 3 C7.04581269 3.46954261 7.04581269 3.46954261 10.5625 3.625 C11.76003906 3.69976562 12.95757812 3.77453125 14.19140625 3.8515625 C15.11824219 3.90054687 16.04507813 3.94953125 17 4 C17 4.66 17 5.32 17 6 C12.71 6 8.42 6 4 6 C3.87625 7.546875 3.7525 9.09375 3.625 10.6875 C3.25423104 14.50265882 2.51287629 17.46995532 1 21 C0.83201738 23.70886941 0.83201738 23.70886941 1 26 C3.475 26.99 3.475 26.99 6 28 C6 28.66 6 29.32 6 30 C3.1875 29.875 3.1875 29.875 0 29 C-3.3274547 24.07043748 -3.37622693 19.83519942 -3.1875 14.125 C-3.17396484 13.34125 -3.16042969 12.5575 -3.14648438 11.75 C-3.11141789 9.83303218 -3.05762072 7.91642249 -3 6 C-5.97 6 -8.94 6 -12 6 C-12 5.34 -12 4.68 -12 4 C-8.7 4 -5.4 4 -2 4 C-1.34 2.68 -0.68 1.36 0 0 Z " fill="#746E6F" transform="translate(211,331)"/>
<path d="M0 0 C1.65 0.33 3.3 0.66 5 1 C5.66 2.98 6.32 4.96 7 7 C8.32 7 9.64 7 11 7 C12.32 4.69 13.64 2.38 15 0 C15.66 0 16.32 0 17 0 C16.67 2.97 16.34 5.94 16 9 C16.99 9.33 17.98 9.66 19 10 C19.66 6.7 20.32 3.4 21 0 C21.66 0 22.32 0 23 0 C23.33 2.97 23.66 5.94 24 9 C27.9047195 8.46106182 27.9047195 8.46106182 29.23828125 6.40625 C29.77001953 5.46265625 29.77001953 5.46265625 30.3125 4.5 C32.44383259 1.24305739 32.72897254 1.0666461 36.8125 0.0625 C38.3903125 0.0315625 38.3903125 0.0315625 40 0 C40.495 0.99 40.495 0.99 41 2 C38.69 2.66 36.38 3.32 34 4 C33.91773332 7.04386724 34.02391783 9.07175348 35 12 C34.01 12 33.02 12 32 12 C31.34 11.34 30.68 10.68 30 10 C29.01 10.66 28.02 11.32 27 12 C25 11.625 25 11.625 23 11 C20.04996794 10.86742176 20.04996794 10.86742176 17.5 11.6875 C16.675 11.790625 15.85 11.89375 15 12 C13.1875 10.5625 13.1875 10.5625 12 9 C11.67 9.33 11.34 9.66 11 10 C10.05125 9.95875 9.1025 9.9175 8.125 9.875 C5.00058878 9.64614033 5.00058878 9.64614033 3.4375 11.5625 C2.963125 12.036875 2.48875 12.51125 2 13 C-0.6875 12.6875 -0.6875 12.6875 -3 12 C-2.67 10.68 -2.34 9.36 -2 8 C-1.67 8.66 -1.34 9.32 -1 10 C-0.01 10 0.98 10 2 10 C2.66 7.36 3.32 4.72 4 2 C3.01 2 2.02 2 1 2 C1.33 3.32 1.66 4.64 2 6 C1.01 5.67 0.02 5.34 -1 5 C-0.67 3.35 -0.34 1.7 0 0 Z " fill="#6C6667" transform="translate(340,349)"/>
<path d="M0 0 C0.99 0 1.98 0 3 0 C3.33 1.32 3.66 2.64 4 4 C8.29 4 12.58 4 17 4 C17 4.66 17 5.32 17 6 C12.71 6 8.42 6 4 6 C4.04125 7.03125 4.0825 8.0625 4.125 9.125 C4.0022123 12.93141864 3.6337465 15.56913234 2 19 C-0.0625 19.6875 -0.0625 19.6875 -2 20 C-2.33 20.99 -2.66 21.98 -3 23 C-3 17.39 -3 11.78 -3 6 C-5.97 6 -8.94 6 -12 6 C-12 5.34 -12 4.68 -12 4 C-10.95199219 3.94392578 -10.95199219 3.94392578 -9.8828125 3.88671875 C-8.97273437 3.82097656 -8.06265625 3.75523437 -7.125 3.6875 C-6.22007812 3.62949219 -5.31515625 3.57148438 -4.3828125 3.51171875 C-1.63778399 3.2117961 -1.63778399 3.2117961 0 0 Z " fill="#70696B" transform="translate(525,331)"/>
<path d="M0 0 C0.66 0 1.32 0 2 0 C3.33583899 4.84241633 4.25328119 8.93437617 4 14 C7.36591866 12.55746343 9.51047079 10.66735273 12 8 C11.45440934 11.81913463 10.0538034 13.66946583 7 16 C3.25 16.75 3.25 16.75 0 17 C-0.66 15.68 -1.32 14.36 -2 13 C-0.68 13 0.64 13 2 13 C1.67 11.35 1.34 9.7 1 8 C0.47212891 8.86625 0.47212891 8.86625 -0.06640625 9.75 C-1.59101256 12.0428805 -3.04025227 14.06150767 -5 16 C-8.875 16.5 -8.875 16.5 -12 16 C-12.268125 15.360625 -12.53625 14.72125 -12.8125 14.0625 C-13.88667752 11.66868314 -13.88667752 11.66868314 -17 11 C-15.68 8.69 -14.36 6.38 -13 4 C-11.35 4.33 -9.7 4.66 -8 5 C-7.25 6.6875 -7.25 6.6875 -7 9 C-8.9375 11.75 -8.9375 11.75 -11 14 C-7.54748483 13.15605185 -5.50701964 12.63377455 -3.25 9.8125 C-1.82337246 6.60258804 -0.86689636 3.40090111 0 0 Z " fill="#5F5859" transform="translate(582,345)"/>
<path d="M0 0 C1.9375 0.375 1.9375 0.375 4 1 C6.30069515 5.6013903 5.48487764 11.31669115 4.10546875 16.10546875 C3.13094182 18.76733912 2.11054222 21.3922089 1 24 C0.01 24 -0.98 24 -2 24 C-2.25549427 20.7515089 -2.47476093 17.50154879 -2.6875 14.25 C-2.76033203 13.32960938 -2.83316406 12.40921875 -2.90820312 11.4609375 C-2.96298828 10.57148438 -3.01777344 9.68203125 -3.07421875 8.765625 C-3.13182373 7.94868164 -3.18942871 7.13173828 -3.2487793 6.29003906 C-2.93888764 3.43745442 -1.86751623 2.12576705 0 0 Z " fill="#6D6768" transform="translate(485,325)"/>
<path d="M0 0 C1.24697084 3.60236019 0.62963914 6.30087007 0 10 C0.33 10.99 0.66 11.98 1 13 C3.45224694 12.89386164 3.45224694 12.89386164 6 12 C7.18391223 9.62374655 7.18391223 9.62374655 8 7 C9.625 5.1875 9.625 5.1875 11 4 C11.66 4.33 12.32 4.66 13 5 C12.34 5.66 11.68 6.32 11 7 C10.83312552 9.58354218 10.83312552 9.58354218 11 12 C12.65 12 14.3 12 16 12 C15.649375 11.443125 15.29875 10.88625 14.9375 10.3125 C13.78154007 7.46113217 14.19032562 5.91482778 15 3 C18.875 3.875 18.875 3.875 20 5 C20.04063832 6.66617115 20.042721 8.33388095 20 10 C20.61875 9.505 21.2375 9.01 21.875 8.5 C24 7 24 7 26 7 C25.4375 8.8125 25.4375 8.8125 24 11 C20.4375 12.6875 20.4375 12.6875 17 14 C16.67 14.33 16.34 14.66 16 15 C13.66055264 14.71269945 11.3260857 14.38063221 9 14 C9 13.34 9 12.68 9 12 C8.2575 12.515625 7.515 13.03125 6.75 13.5625 C4 15 4 15 1.875 15 C-0.88709756 13.5268813 -1.71845682 11.81939501 -3 9 C-3.1875 6.1875 -3.1875 6.1875 -3 4 C-2.34 4 -1.68 4 -1 4 C-0.67 2.68 -0.34 1.36 0 0 Z " fill="#686162" transform="translate(446,346)"/>
<path d="M0 0 C0.66 0 1.32 0 2 0 C2.33 3.3 2.66 6.6 3 10 C4.32 10 5.64 10 7 10 C8.70082703 7.78610944 8.70082703 7.78610944 10.0625 5 C11.53515625 2.1875 11.53515625 2.1875 13 0 C13.99 0 14.98 0 16 0 C16.33 2.64 16.66 5.28 17 8 C17.86625 6.5459375 17.86625 6.5459375 18.75 5.0625 C21 2 21 2 25 1 C25 3.97 25 6.94 25 10 C24.67 10 24.34 10 24 10 C24 7.69 24 5.38 24 3 C23.34 3 22.68 3 22 3 C21.773125 3.721875 21.54625 4.44375 21.3125 5.1875 C19.75168987 8.53209313 17.6968713 10.51603959 15 13 C13.03177114 11.03177114 13.33751619 7.65191291 13 5 C12.38125 5.94875 11.7625 6.8975 11.125 7.875 C9 11 9 11 7 13 C4.5 13.3125 4.5 13.3125 2 13 C-0.20914 9.68629 -0.22481553 8.6553979 -0.125 4.8125 C-0.10695313 3.91144531 -0.08890625 3.01039063 -0.0703125 2.08203125 C-0.04710937 1.39496094 -0.02390625 0.70789063 0 0 Z " fill="#655E60" transform="translate(410,348)"/>
<path d="M0 0 C0.99 0 1.98 0 3 0 C4.45184478 4.53701494 5.23509196 8.18061476 5 13 C8.36720387 11.60667426 9.9859524 10.0210714 12 7 C12.66 7.33 13.32 7.66 14 8 C10.125 13.875 10.125 13.875 9 15 C1.74349442 15.59479554 1.74349442 15.59479554 -1.5 13 C-1.995 12.34 -2.49 11.68 -3 11 C-2.690625 10.29875 -2.38125 9.5975 -2.0625 8.875 C-0.96697322 5.91063343 -0.43577008 3.12301892 0 0 Z " fill="#726C6D" transform="translate(387,346)"/>
<path d="M0 0 C1.65 0.33 3.3 0.66 5 1 C4.5020163 4.73487777 4.12508244 6.81237635 2 10 C1.29875 9.731875 0.5975 9.46375 -0.125 9.1875 C-3.46011275 8.96999265 -3.86550387 9.36830612 -6.3125 11.4375 C-7.199375 12.283125 -8.08625 13.12875 -9 14 C-9.99 13.34 -10.98 12.68 -12 12 C-11.2575 11.608125 -10.515 11.21625 -9.75 10.8125 C-6.76083961 8.84237156 -5.10426852 6.87583364 -3 4 C-2.4225 3.236875 -1.845 2.47375 -1.25 1.6875 C-0.8375 1.130625 -0.425 0.57375 0 0 Z " fill="#807A7B" transform="translate(495,349)"/>
<path d="M0 0 C0.33 0 0.66 0 1 0 C1.33 1.65 1.66 3.3 2 5 C3.32 3.35 4.64 1.7 6 0 C7.32 0.33 8.64 0.66 10 1 C10 3.97 10 6.94 10 10 C11.32 9.34 12.64 8.68 14 8 C14.99 8.33 15.98 8.66 17 9 C15.8125 10.5625 15.8125 10.5625 14 12 C9.57894737 11.57894737 9.57894737 11.57894737 8 10 C7.63239269 7.67182036 7.29758419 5.3381615 7 3 C5.02 5.97 3.04 8.94 1 12 C0.01 11.67 -0.98 11.34 -2 11 C-1.855625 10.484375 -1.71125 9.96875 -1.5625 9.4375 C-0.84190099 6.31490429 -0.42733561 3.17449308 0 0 Z " fill="#696263" transform="translate(291,349)"/>
<path d="M0 0 C0.99 0 1.98 0 3 0 C2.85915204 1.79206547 2.71216299 3.58364917 2.5625 5.375 C2.48128906 6.37273437 2.40007812 7.37046875 2.31640625 8.3984375 C2 11 2 11 1 13 C0.34 13 -0.32 13 -1 13 C-0.773125 13.721875 -0.54625 14.44375 -0.3125 15.1875 C0 18 0 18 -1.0625 20.75 C-3 23 -3 23 -6.1875 23.8125 C-7.115625 23.874375 -8.04375 23.93625 -9 24 C-10.231394 20.30581799 -9.64432764 17.7943739 -9 14 C-8.67 14 -8.34 14 -8 14 C-8 16.64 -8 19.28 -8 22 C-5.9828784 21.43986373 -5.9828784 21.43986373 -4 20 C-2.8884804 17.15022655 -2.8884804 17.15022655 -2.3125 13.8125 C-2.0753125 12.64976562 -1.838125 11.48703125 -1.59375 10.2890625 C-0.9749679 6.86133534 -0.40226318 3.45946331 0 0 Z " fill="#767071" transform="translate(444,337)"/>
<path d="M0 0 C0.66 0 1.32 0 2 0 C4.44474739 4.88949477 3.2288329 10.93159732 1.625 15.9375 C0.66357318 18.6906768 0.09829449 19.90170551 -2 22 C-2.05401695 19.08308475 -2.09368066 16.16717276 -2.125 13.25 C-2.14175781 12.425 -2.15851563 11.6 -2.17578125 10.75 C-2.18222656 9.95078125 -2.18867188 9.1515625 -2.1953125 8.328125 C-2.20578613 7.5949707 -2.21625977 6.86181641 -2.22705078 6.10644531 C-1.96777544 3.70103924 -1.19225925 2.08748506 0 0 Z " fill="#F1F0F1" transform="translate(338,327)"/>
<path d="M0 0 C0.99 0 1.98 0 3 0 C2.9278125 1.02480469 2.855625 2.04960937 2.78125 3.10546875 C2.68741063 4.46613967 2.59366561 5.82681711 2.5 7.1875 C2.42845703 8.19780273 2.42845703 8.19780273 2.35546875 9.22851562 C2.10976179 12.82636752 1.94398016 16.39372306 2 20 C4.475 20.99 4.475 20.99 7 22 C7 22.66 7 23.32 7 24 C4.1875 23.875 4.1875 23.875 1 23 C-2.14168296 18.29105378 -2.25418202 14.7960022 -1.75 9.25 C-1.64171875 7.93515625 -1.5334375 6.6203125 -1.421875 5.265625 C-1 2 -1 2 0 0 Z " fill="#7B7577" transform="translate(210,337)"/>
<path d="M0 0 C0.66 0 1.32 0 2 0 C3.33583899 4.84241633 4.25328119 8.93437617 4 14 C7.36591866 12.55746343 9.51047079 10.66735273 12 8 C11.45440934 11.81913463 10.0538034 13.66946583 7 16 C3.25 16.75 3.25 16.75 0 17 C-0.66 15.68 -1.32 14.36 -2 13 C-0.68 13 0.64 13 2 13 C1.67 11.35 1.34 9.7 1 8 C0.01 8 -0.98 8 -2 8 C-1.125 1.125 -1.125 1.125 0 0 Z " fill="#696264" transform="translate(582,345)"/>
<path d="M0 0 C2 0 2 0 3.5 1.4375 C3.995 1.953125 4.49 2.46875 5 3 C5.66 3.33 6.32 3.66 7 4 C7 7.3 7 10.6 7 14 C7.763125 13.649375 8.52625 13.29875 9.3125 12.9375 C12 12 12 12 15 13 C13.18887927 15.28773145 12.39279457 15.95209822 9.4375 16.3125 C7 16 7 16 5 14 C4.73008094 11.31160615 4.91262643 8.70858064 5 6 C3.35 6.33 1.7 6.66 0 7 C0 6.34 0 5.68 0 5 C-0.66 5 -1.32 5 -2 5 C-1.125 1.125 -1.125 1.125 0 0 Z " fill="#686163" transform="translate(552,345)"/>
<path d="M0 0 C3.875 0.875 3.875 0.875 5 2 C5.04063832 3.66617115 5.042721 5.33388095 5 7 C5.61875 6.505 6.2375 6.01 6.875 5.5 C9 4 9 4 11 4 C10.4375 5.8125 10.4375 5.8125 9 8 C5.07873196 9.99762711 1.35082321 11.34078436 -3 12 C-1.68 11.01 -0.36 10.02 1 9 C0.649375 8.443125 0.29875 7.88625 -0.0625 7.3125 C-1.21845993 4.46113217 -0.80967438 2.91482778 0 0 Z " fill="#5A5254" transform="translate(461,349)"/>
<path d="M0 0 C3.8126389 3.54105366 4.88807271 7.05992695 5.1875 12.25 C5 15 5 15 4 17 C3.01 17 2.02 17 1 17 C-0.18681726 13.43954823 -0.09689832 10.56191663 -0.0625 6.8125 C-0.05347656 5.54019531 -0.04445313 4.26789063 -0.03515625 2.95703125 C-0.02355469 1.98121094 -0.01195312 1.00539063 0 0 Z " fill="#E5E4E4" transform="translate(483,365)"/>
<path d="M0 0 C0.99 0.33 1.98 0.66 3 1 C3.38614349 7.8218683 2.00865708 13.49577707 0 20 C-0.33 20 -0.66 20 -1 20 C-1.02696009 17.2291017 -1.04681952 14.4584655 -1.0625 11.6875 C-1.07087891 10.90181641 -1.07925781 10.11613281 -1.08789062 9.30664062 C-1.09111328 8.54931641 -1.09433594 7.79199219 -1.09765625 7.01171875 C-1.10289307 6.31522217 -1.10812988 5.61872559 -1.11352539 4.90112305 C-1 3 -1 3 0 0 Z " fill="#F8F8F8" transform="translate(485,327)"/>
<path d="M0 0 C0.33 0 0.66 0 1 0 C1.05402274 2.10388569 1.09280256 4.20816714 1.125 6.3125 C1.14820313 7.48425781 1.17140625 8.65601563 1.1953125 9.86328125 C1 13 1 13 -1 16 C-1.99 15.67 -2.98 15.34 -4 15 C-3.63495936 9.33557626 -2.9445679 4.99296295 0 0 Z " fill="#EFEEEE" transform="translate(314,369)"/>
<path d="M0 0 C0.33 0 0.66 0 1 0 C1.05449838 1.72880982 1.09301688 3.45812712 1.125 5.1875 C1.14820313 6.15042969 1.17140625 7.11335938 1.1953125 8.10546875 C0.9913544 11.12812778 0.26874632 13.26769985 -1 16 C-1.99 16 -2.98 16 -4 16 C-4.46450943 9.49686791 -3.32575612 5.5825192 0 0 Z " fill="#F2F1F1" transform="translate(377,369)"/>
<path d="M0 0 C0.66 0 1.32 0 2 0 C2.33 2.31 2.66 4.62 3 7 C3.5775 6.030625 4.155 5.06125 4.75 4.0625 C7 1 7 1 11 0 C11 2.97 11 5.94 11 9 C10.67 9 10.34 9 10 9 C10 6.69 10 4.38 10 2 C9.34 2 8.68 2 8 2 C7.773125 2.721875 7.54625 3.44375 7.3125 4.1875 C5.75168987 7.53209313 3.6968713 9.51603959 1 12 C0.01751476 7.9472484 -0.08159574 4.16138263 0 0 Z " fill="#665F61" transform="translate(424,349)"/>
<path d="M0 0 C0.28875 0.639375 0.5775 1.27875 0.875 1.9375 C1.82823451 4.15206079 1.82823451 4.15206079 4 5 C3.67 3.68 3.34 2.36 3 1 C3.99 1 4.98 1 6 1 C6.25 6.625 6.25 6.625 4 10 C2.0625 9.625 2.0625 9.625 0 9 C-1.36623674 6.26752652 -1.128426 4.01801098 -1 1 C-0.67 0.67 -0.34 0.34 0 0 Z " fill="#F2F2F2" transform="translate(338,350)"/>
<path d="M0 0 C0.66 0 1.32 0 2 0 C1.67515625 0.87011719 1.67515625 0.87011719 1.34375 1.7578125 C-0.28435049 6.32553887 -1.37861182 10.0780464 -1 15 C0.32 15 1.64 15 3 15 C2.67 15.99 2.34 16.98 2 18 C-2.875 17.125 -2.875 17.125 -4 16 C-4.64912546 9.76839559 -2.80076332 5.51400279 0 0 Z " fill="#6B6466" transform="translate(312,369)"/>
<path d="M0 0 C0.66 0 1.32 0 2 0 C1.85888117 2.75031587 1.71228835 5.50015418 1.5625 8.25 C1.50352539 9.41595703 1.50352539 9.41595703 1.44335938 10.60546875 C1.40146484 11.35957031 1.35957031 12.11367188 1.31640625 12.890625 C1.27974854 13.58188477 1.24309082 14.27314453 1.20532227 14.98535156 C0.99324476 17.06628329 0.55491323 18.98572422 0 21 C-0.66 21 -1.32 21 -2 21 C-1.67 16.05 -1.34 11.1 -1 6 C-1.66 6 -2.32 6 -3 6 C-2 4 -1 2 0 0 Z " fill="#5F5759" transform="translate(316,363)"/>
<path d="M0 0 C0.66 0 1.32 0 2 0 C2.33 2.31 2.66 4.62 3 7 C4.32 5.68 5.64 4.36 7 3 C6.42676569 6.86933162 4.61046448 9.15222057 2 12 C1.34 12 0.68 12 0 12 C-0.12375 11.030625 -0.2475 10.06125 -0.375 9.0625 C-0.58125 8.051875 -0.7875 7.04125 -1 6 C-1.66 5.67 -2.32 5.34 -3 5 C-1.625 2.5 -1.625 2.5 0 0 Z " fill="#5B5355" transform="translate(378,354)"/>
<path d="M0 0 C1.4540625 0.0309375 1.4540625 0.0309375 2.9375 0.0625 C2.9375 0.7225 2.9375 1.3825 2.9375 2.0625 C1.82375 2.31 0.71 2.5575 -0.4375 2.8125 C-4.10865198 3.67255339 -4.10865198 3.67255339 -5.5 6.1875 C-5.685625 6.80625 -5.87125 7.425 -6.0625 8.0625 C-6.7225 8.0625 -7.3825 8.0625 -8.0625 8.0625 C-8.7225 9.3825 -9.3825 10.7025 -10.0625 12.0625 C-12.0425 12.0625 -14.0225 12.0625 -16.0625 12.0625 C-16.3925 11.4025 -16.7225 10.7425 -17.0625 10.0625 C-16.03125 10.0625 -15 10.0625 -13.9375 10.0625 C-11.21243875 9.70802049 -10.24339949 9.24820213 -8.296875 7.25 C-6.80944774 5.22825421 -5.41852113 3.1738886 -4.0625 1.0625 C-3.0625 0.0625 -3.0625 0.0625 0 0 Z " fill="#625B5D" transform="translate(512.0625,348.9375)"/>
<path d="M0 0 C2.475 0.495 2.475 0.495 5 1 C7.03821594 7.11464781 6.28927352 13.09608409 4 19 C3.01 19.33 2.02 19.66 1 20 C1.33 19.030625 1.66 18.06125 2 17.0625 C3.22597364 12.72308251 3.59683883 8.48061611 3 4 C1.68236671 1.4810733 1.68236671 1.4810733 0 0 Z " fill="#787273" transform="translate(337,325)"/>
<path d="M0 0 C0.33 0.66 0.66 1.32 1 2 C0.01 2.66 -0.98 3.32 -2 4 C-3.05104383 5.63495707 -4.05988318 7.29883624 -5 9 C-5.99 8.67 -6.98 8.34 -8 8 C-8.125 5.625 -8.125 5.625 -8 3 C-5.4345406 0.4345406 -3.52313332 0.45953913 0 0 Z " fill="#F4F3F4" transform="translate(515,350)"/>
<path d="M0 0 C2 1 2 1 3.125 4.0625 C3.41375 5.031875 3.7025 6.00125 4 7 C2.33333333 7 0.66666667 7 -1 7 C-2.66965451 7.31802943 -4.33678518 7.64984951 -6 8 C-6.99 6.68 -7.98 5.36 -9 4 C-8.01 3.67 -7.02 3.34 -6 3 C-5.67 3.66 -5.34 4.32 -5 5 C-1.88667752 4.33131686 -1.88667752 4.33131686 -0.8125 1.9375 C-0.544375 1.298125 -0.27625 0.65875 0 0 Z " fill="#746E6F" transform="translate(513,353)"/>
<path d="M0 0 C0.94875 0.04125 1.8975 0.0825 2.875 0.125 C2.545 1.115 2.215 2.105 1.875 3.125 C1.215 3.125 0.555 3.125 -0.125 3.125 C-0.455 4.445 -0.785 5.765 -1.125 7.125 C-2.445 7.125 -3.765 7.125 -5.125 7.125 C-5.25 4.75 -5.25 4.75 -5.125 2.125 C-3.125 0.125 -3.125 0.125 0 0 Z " fill="#F0F0F0" transform="translate(378.125,350.875)"/>
<path d="M0 0 C0.66 0 1.32 0 2 0 C3.6875 2.3125 3.6875 2.3125 5 5 C4.67 5.99 4.34 6.98 4 8 C2.33388095 8.042721 0.66617115 8.04063832 -1 8 C-2 7 -2 7 -2.1875 4.5625 C-2 2 -2 2 0 0 Z " fill="#EEEEEE" transform="translate(458,351)"/>
<path d="M0 0 C-0.33 5.61 -0.66 11.22 -1 17 C-1.33 17 -1.66 17 -2 17 C-2 12.38 -2 7.76 -2 3 C-4.97 3 -7.94 3 -11 3 C-11 2.34 -11 1.68 -11 1 C-9.35422741 0.83273455 -7.70838013 0.66620388 -6.0625 0.5 C-4.68771484 0.36078125 -4.68771484 0.36078125 -3.28515625 0.21875 C-1 0 -1 0 0 0 Z " fill="#625B5D" transform="translate(210,334)"/>
<path d="M0 0 C2.96872502 4.45308753 2.64000837 8.7757456 2 14 C0.92186168 16.46565546 -0.21928044 17.94104301 -2 20 C-2.99 19.67 -3.98 19.34 -5 19 C-4.01 18.34 -3.02 17.68 -2 17 C-0.69143472 13.58362597 -0.6909547 9.87078146 -0.4375 6.25 C-0.35371094 5.07953125 -0.26992188 3.9090625 -0.18359375 2.703125 C-0.12300781 1.81109375 -0.06242187 0.9190625 0 0 Z " fill="#655E60" transform="translate(378,367)"/>
<path d="M0 0 C0.78375 0.04125 1.5675 0.0825 2.375 0.125 C0.89807692 5.78653846 0.89807692 5.78653846 -1.75 7.5 C-2.678125 7.809375 -2.678125 7.809375 -3.625 8.125 C-4.625 7.125 -4.625 7.125 -4.8125 4.6875 C-4.54653904 1.05270021 -3.63803315 0.17323967 0 0 Z " fill="#F8F8F8" transform="translate(314.625,350.875)"/>
<path d="M0 0 C0.66 0.33 1.32 0.66 2 1 C-1.875 6.875 -1.875 6.875 -3 8 C-10.52238806 8.23880597 -10.52238806 8.23880597 -13 7 C-12.67 6.34 -12.34 5.68 -12 5 C-11.01 5 -10.02 5 -9 5 C-8.34 3.68 -7.68 2.36 -7 1 C-7 2.65 -7 4.3 -7 6 C-3.63279613 4.60667426 -2.0140476 3.0210714 0 0 Z " fill="#635B5D" transform="translate(399,353)"/>
<path d="M0 0 C2 3 2 3 1.75 5.375 C0.99786647 8.00746736 0.07799802 10.48467129 -1 13 C-1.99 13 -2.98 13 -4 13 C-4 9.04 -4 5.08 -4 1 C-3.67 1 -3.34 1 -3 1 C-2.67 3.31 -2.34 5.62 -2 8 C-1.34 5.36 -0.68 2.72 0 0 Z " fill="#898384" transform="translate(487,336)"/>
<path d="M0 0 C1.67542976 0.28604898 3.34385343 0.61781233 5 1 C5.33 2.32 5.66 3.64 6 5 C4.02 5.66 2.04 6.32 0 7 C-0.38133299 5.0085944 -0.71325582 3.00720923 -1 1 C-0.67 0.67 -0.34 0.34 0 0 Z " fill="#A6A1A2" transform="translate(569,349)"/>
<path d="M0 0 C0.66 0 1.32 0 2 0 C2 2.64 2 5.28 2 8 C1.34 8 0.68 8 0 8 C-0.66 9.32 -1.32 10.64 -2 12 C-3.32 12 -4.64 12 -6 12 C-6 11.34 -6 10.68 -6 10 C-4.68 10 -3.36 10 -2 10 C-1.34 6.7 -0.68 3.4 0 0 Z " fill="#716A6C" transform="translate(361,349)"/>
<path d="M0 0 C1.1577506 3.47325181 1.06866652 6.36067448 1 10 C0.01 9.34 -0.98 8.68 -2 8 C-3.65 9.32 -5.3 10.64 -7 12 C-7.66 11.67 -8.32 11.34 -9 11 C-8.21625 10.2575 -7.4325 9.515 -6.625 8.75 C-4.43495469 6.45566682 -3.17268614 4.87841142 -2 2 C-1.34 2 -0.68 2 0 2 C0 1.34 0 0.68 0 0 Z " fill="#5C5456" transform="translate(525,349)"/>
<path d="M0 0 C0.66 0 1.32 0 2 0 C1.8864371 1.64666203 1.75882619 3.29236082 1.625 4.9375 C1.55539062 5.85402344 1.48578125 6.77054687 1.4140625 7.71484375 C1.27742188 8.46894531 1.14078125 9.22304688 1 10 C0.01 10.495 0.01 10.495 -1 11 C-1.66 10.34 -2.32 9.68 -3 9 C-5.60280568 9.32041397 -5.60280568 9.32041397 -8 10 C-7.236875 9.278125 -6.47375 8.55625 -5.6875 7.8125 C-2.955914 5.16073022 -2.955914 5.16073022 -1.3125 2.1875 C-0.879375 1.465625 -0.44625 0.74375 0 0 Z " fill="#625B5C" transform="translate(355,349)"/>
<path d="M0 0 C2 0 2 0 3.5 1.375 C3.995 1.91125 4.49 2.4475 5 3 C5.66 3.66 6.32 4.32 7 5 C4.69 5.66 2.38 6.32 0 7 C0 6.34 0 5.68 0 5 C-0.66 5 -1.32 5 -2 5 C-1.125 1.125 -1.125 1.125 0 0 Z " fill="#756E70" transform="translate(552,345)"/>
<path d="M0 0 C0.66 0 1.32 0 2 0 C2.33 3.3 2.66 6.6 3 10 C1.35 10.33 -0.3 10.66 -2 11 C-2 7.07103605 -0.99700137 3.80106772 0 0 Z " fill="#746E6F" transform="translate(228,349)"/>
<path d="M0 0 C0.66 0 1.32 0 2 0 C2.66 3.3 3.32 6.6 4 10 C3.34 10 2.68 10 2 10 C1.67 9.34 1.34 8.68 1 8 C0.01 8 -0.98 8 -2 8 C-1.125 1.125 -1.125 1.125 0 0 Z " fill="#767072" transform="translate(582,345)"/>
<path d="M0 0 C0.99 0 1.98 0 3 0 C2.88610125 1.79240663 2.75852313 3.58394835 2.625 5.375 C2.52058594 6.87160156 2.52058594 6.87160156 2.4140625 8.3984375 C2 11 2 11 0 13 C0 8.71 0 4.42 0 0 Z " fill="#F5F5F5" transform="translate(444,337)"/>
<path d="M0 0 C0.93461171 2.69998937 0.97499585 4.13335549 0.4375 7 C-0.0333592 10.22874882 0.25262747 11.3275479 2 14 C-1 13 -1 13 -2.1875 10.6875 C-3 8 -3 8 -3 4 C-2.34 4 -1.68 4 -1 4 C-0.67 2.68 -0.34 1.36 0 0 Z " fill="#60595B" transform="translate(446,346)"/>
<path d="M0 0 C1.32 0.33 2.64 0.66 4 1 C3.67 3.97 3.34 6.94 3 10 C2.67 10 2.34 10 2 10 C1.67 7.69 1.34 5.38 1 3 C0.01 4.485 0.01 4.485 -1 6 C-1.99 5.67 -2.98 5.34 -4 5 C-2.68 3.35 -1.36 1.7 0 0 Z " fill="#756F70" transform="translate(264,349)"/>
<path d="M0 0 C0.33 0.99 0.66 1.98 1 3 C-0.5 5.6875 -0.5 5.6875 -3 8 C-6.75 8.3125 -6.75 8.3125 -10 8 C-9.67 7.34 -9.34 6.68 -9 6 C-8.05125 5.71125 -7.1025 5.4225 -6.125 5.125 C-2.76006822 3.91362456 -1.80055991 3.00093318 0 0 Z " fill="#6A6365" transform="translate(580,353)"/>
<path d="M0 0 C0.99 0 1.98 0 3 0 C2.88541307 1.43836751 2.75790884 2.87570966 2.625 4.3125 C2.55539062 5.11300781 2.48578125 5.91351563 2.4140625 6.73828125 C2 9 2 9 0 12 C0 8.04 0 4.08 0 0 Z " fill="#FBFBFB" transform="translate(524,337)"/>
<path d="M0 0 C1.5625 1.25 1.5625 1.25 3 3 C2.6875 5.1875 2.6875 5.1875 2 7 C0.35 7 -1.3 7 -3 7 C-1.125 2.25 -1.125 2.25 0 0 Z " fill="#E4E3E3" transform="translate(582,352)"/>
<path d="M0 0 C0.66 0 1.32 0 2 0 C2.33 2.31 2.66 4.62 3 7 C3.66 6.67 4.32 6.34 5 6 C4.34 7.65 3.68 9.3 3 11 C2.01 11 1.02 11 0 11 C0 7.37 0 3.74 0 0 Z " fill="#564E50" transform="translate(424,349)"/>
<path d="M0 0 C0.99 0 1.98 0 3 0 C2.25 7.625 2.25 7.625 0 11 C0 7.37 0 3.74 0 0 Z " fill="#F6F6F6" transform="translate(210,337)"/>
<path d="M0 0 C0.33 0 0.66 0 1 0 C1.33 3.63 1.66 7.26 2 11 C0.68 11 -0.64 11 -2 11 C-1.855625 10.484375 -1.71125 9.96875 -1.5625 9.4375 C-0.84190099 6.31490429 -0.42733561 3.17449308 0 0 Z " fill="#858081" transform="translate(291,349)"/>
<path d="M0 0 C0.33 0 0.66 0 1 0 C1 1.65 1 3.3 1 5 C1.61875 4.505 2.2375 4.01 2.875 3.5 C5 2 5 2 7 2 C5.125 5.875 5.125 5.875 4 7 C2.33382885 7.04063832 0.66611905 7.042721 -1 7 C-0.67 4.69 -0.34 2.38 0 0 Z " fill="#7D7778" transform="translate(465,351)"/>
<path d="M0 0 C0.66 0 1.32 0 2 0 C0.79157144 4.43090471 -0.51668565 6.98112756 -4 10 C-4.99 9.67 -5.98 9.34 -7 9 C-6.21625 8.2575 -5.4325 7.515 -4.625 6.75 C-2.43495469 4.45566682 -1.17268614 2.87841142 0 0 Z " fill="#60595B" transform="translate(254,350)"/>
<path d="M0 0 C0.66 0 1.32 0 2 0 C2.33 1.65 2.66 3.3 3 5 C1.68 5.33 0.36 5.66 -1 6 C-1.33 5.34 -1.66 4.68 -2 4 C-1.0625 1.875 -1.0625 1.875 0 0 Z " fill="#EDECED" transform="translate(388,353)"/>
<path d="M0 0 C0.9075 0.185625 1.815 0.37125 2.75 0.5625 C5.68314324 0.95734621 7.2644657 0.94691572 10 0 C8.25 2.0625 8.25 2.0625 6 4 C3.875 3.9375 3.875 3.9375 2 3 C1.34 2.01 0.68 1.02 0 0 Z " fill="#645D5F" transform="translate(361,357)"/>
<path d="M0 0 C2.78637633 4.1795645 1.79562512 6.14668677 1 11 C0.34 10.34 -0.32 9.68 -1 9 C-0.9765625 6.8359375 -0.9765625 6.8359375 -0.625 4.375 C-0.51414062 3.55773437 -0.40328125 2.74046875 -0.2890625 1.8984375 C-0.19367188 1.27195312 -0.09828125 0.64546875 0 0 Z " fill="#7D7778" transform="translate(447,337)"/>
<path d="M0 0 C0.33 0.99 0.66 1.98 1 3 C-0.9375 6.1875 -0.9375 6.1875 -3 9 C-3.66 8.34 -4.32 7.68 -5 7 C-3.35 4.69 -1.7 2.38 0 0 Z " fill="#6B6466" transform="translate(553,351)"/>
<path d="M0 0 C0 0.66 0 1.32 0 2 C-2.64 2.66 -5.28 3.32 -8 4 C-8 3.01 -8 2.02 -8 1 C-5.29120665 -0.35439668 -2.99066732 -0.06501451 0 0 Z " fill="#6C6567" transform="translate(318,349)"/>
<path d="M0 0 C2.0625 0.4375 2.0625 0.4375 4 1 C3.67 2.32 3.34 3.64 3 5 C2.01 5 1.02 5 0 5 C-0.5625 3.0625 -0.5625 3.0625 -1 1 C-0.67 0.67 -0.34 0.34 0 0 Z " fill="#888284" transform="translate(445,331)"/>
<path d="M0 0 C0.33 0 0.66 0 1 0 C1.33 3.3 1.66 6.6 2 10 C1.34 10 0.68 10 0 10 C-0.33 10.99 -0.66 11.98 -1 13 C-0.67 8.71 -0.34 4.42 0 0 Z " fill="#857F80" transform="translate(523,341)"/>
<path d="M0 0 C1.98 0.495 1.98 0.495 4 1 C3.67 2.65 3.34 4.3 3 6 C1.68 4.68 0.36 3.36 -1 2 C-0.67 1.34 -0.34 0.68 0 0 Z " fill="#989394" transform="translate(461,349)"/>
<path d="M0 0 C0.99 0.33 1.98 0.66 3 1 C2.67 1.33 2.34 1.66 2 2 C1.95919217 3.99958364 1.95745644 6.00045254 2 8 C0.68 6.35 -0.64 4.7 -2 3 C-1.34 2.01 -0.68 1.02 0 0 Z " fill="#8D8889" transform="translate(423,348)"/>
<path d="M0 0 C0.99 0 1.98 0 3 0 C2.67 1.65 2.34 3.3 2 5 C1.01 5 0.02 5 -1 5 C-0.67 3.35 -0.34 1.7 0 0 Z " fill="#696263" transform="translate(237,345)"/>
</svg>
