<?xml version="1.0" encoding="UTF-8"?>
<svg version="1.1" xmlns="http://www.w3.org/2000/svg" width="817" height="527">
<path d="M0 0 C269.61 0 539.22 0 817 0 C817 173.91 817 347.82 817 527 C547.39 527 277.78 527 0 527 C0 353.09 0 179.18 0 0 Z " fill="#5582B8" transform="translate(0,0)"/>
<path d="M0 0 C13.54620432 6.71152123 27.53934974 14.92684283 37.81762695 26.14941406 C38.14762695 27.13941406 38.47762695 28.12941406 38.81762695 29.14941406 C40.07575195 29.37628906 41.33387695 29.60316406 42.63012695 29.83691406 C55.94313444 32.54401586 68.91033615 36.37284753 81.81762695 40.58691406 C82.93838623 40.94599854 84.05914551 41.30508301 85.21386719 41.67504883 C94.26573256 44.68786093 103.19895773 48.04829276 109.81762695 55.14941406 C109.15762695 56.79941406 108.49762695 58.44941406 107.81762695 60.14941406 C101.51356415 61.62772529 97.21262525 60.42308518 91.19262695 58.27441406 C90.28617432 57.96141357 89.37972168 57.64841309 88.44580078 57.32592773 C75.55963518 52.77754292 62.99000833 47.35466717 50.81762695 41.14941406 C50.48762695 41.47941406 50.15762695 41.80941406 49.81762695 42.14941406 C50.23915039 42.96925781 50.66067383 43.78910156 51.0949707 44.63378906 C51.64282227 45.71144531 52.19067383 46.78910156 52.75512695 47.89941406 C53.30040039 48.96675781 53.84567383 50.03410156 54.4074707 51.13378906 C57.22767677 57.16481146 57.05129122 62.81137731 57.2434082 69.42285156 C57.89159883 73.62947644 59.33518965 75.75316618 61.81762695 79.14941406 C62.48992129 83.85547442 61.5971879 86.35910368 58.81762695 90.14941406 C56.00512695 91.91503906 56.00512695 91.91503906 52.81762695 93.39941406 C51.76575195 93.89957031 50.71387695 94.39972656 49.63012695 94.91503906 C45.76056953 96.61334482 42.87132195 97.21191037 38.69262695 97.33691406 C34.46748294 97.68441285 31.9673304 98.37225808 28.56762695 100.89941406 C18.33336016 108.43853587 6.25114823 110.44340044 -6.18237305 109.14941406 C-12.30283741 108.01599474 -17.31818274 106.04076631 -22.18237305 102.14941406 C-24.87101931 98.11644467 -24.98944868 94.89000394 -24.18237305 90.14941406 C-22.76877078 87.44534561 -21.17955257 85.49610001 -19.18237305 83.14941406 C-20.04217773 82.74851562 -20.90198242 82.34761719 -21.7878418 81.93457031 C-30.5447846 77.72321614 -38.37951452 72.9559429 -46.18237305 67.14941406 C-47.0537793 66.50230469 -47.92518555 65.85519531 -48.82299805 65.18847656 C-51.30392578 63.04436352 -53.01864891 60.91178926 -54.86987305 58.21191406 C-55.45124023 57.37789063 -56.03260742 56.54386719 -56.6315918 55.68457031 C-59.90966977 50.32569725 -61.46651977 45.37848398 -60.18237305 39.14941406 C-58.17692807 35.23504286 -55.71856136 31.73374872 -53.18237305 28.14941406 C-52.17991126 26.48422694 -51.17943057 24.81784269 -50.18237305 23.14941406 C-48.11769449 20.74062241 -47.29242646 20.18609853 -44.18237305 19.14941406 C-38.06778574 18.73665542 -32.95713305 19.00066615 -27.18237305 21.14941406 C-25.18276216 21.18886385 -23.18188619 21.19354125 -21.18237305 21.14941406 C-21.71491699 20.97925781 -22.24746094 20.80910156 -22.79614258 20.63378906 C-51.49065788 11.34681876 -51.49065788 11.34681876 -59.18237305 2.14941406 C-59.74782817 -1.8087718 -59.88377454 -3.88940611 -57.49487305 -7.16308594 C-42.70074004 -17.95880462 -14.49016364 -6.9427421 0 0 Z " fill="#122F50" transform="translate(383.182373046875,110.8505859375)"/>
<path d="M0 0 C8.91 0 17.82 0 27 0 C27 6.27 27 12.54 27 19 C26.01 19.33 25.02 19.66 24 20 C24 28.91 24 37.82 24 47 C32.25 47 40.5 47 49 47 C49 38.09 49 29.18 49 20 C47.68 19.67 46.36 19.34 45 19 C45 12.73 45 6.46 45 0 C54.24 0 63.48 0 73 0 C73 6.27 73 12.54 73 19 C71.68 19.33 70.36 19.66 69 20 C69 44.42 69 68.84 69 94 C70.98 94.495 70.98 94.495 73 95 C73 101.27 73 107.54 73 114 C63.76 114 54.52 114 45 114 C44.938125 110.90625 44.87625 107.8125 44.8125 104.625 C44.77153198 103.16441162 44.77153198 103.16441162 44.72973633 101.67431641 C44.72224365 100.90780762 44.71475098 100.14129883 44.70703125 99.3515625 C44.6913208 98.56604004 44.67561035 97.78051758 44.65942383 96.97119141 C44.77181396 96.32069824 44.8842041 95.67020508 45 95 C45.99 94.34 46.98 93.68 48 93 C48.510605 90.28995497 48.510605 90.28995497 48.51171875 87.1171875 C48.54716797 85.95058594 48.58261719 84.78398437 48.61914062 83.58203125 C48.64169922 82.35871094 48.66425781 81.13539063 48.6875 79.875 C48.72166016 78.64394531 48.75582031 77.41289062 48.79101562 76.14453125 C48.87370927 73.09667987 48.93852417 70.04835316 49 67 C40.75 67 32.5 67 24 67 C24 75.91 24 84.82 24 94 C25.485 94.495 25.485 94.495 27 95 C27 101.27 27 107.54 27 114 C18.09 114 9.18 114 0 114 C0 107.73 0 101.46 0 95 C1.485 94.505 1.485 94.505 3 94 C3 69.58 3 45.16 3 20 C2.01 19.67 1.02 19.34 0 19 C0 12.73 0 6.46 0 0 Z " fill="#F6F5F6" transform="translate(453,254)"/>
<path d="M0 0 C8.91 0 17.82 0 27 0 C27 6.27 27 12.54 27 19 C26.01 19.33 25.02 19.66 24 20 C24 28.91 24 37.82 24 47 C32.25 47 40.5 47 49 47 C49 38.09 49 29.18 49 20 C47.68 19.67 46.36 19.34 45 19 C45 12.73 45 6.46 45 0 C54.24 0 63.48 0 73 0 C73 6.27 73 12.54 73 19 C71.68 19.33 70.36 19.66 69 20 C69 44.42 69 68.84 69 94 C70.98 94.495 70.98 94.495 73 95 C73 101.27 73 107.54 73 114 C63.76 114 54.52 114 45 114 C45 107.73 45 101.46 45 95 C46.98 94.505 46.98 94.505 49 94 C49 85.09 49 76.18 49 67 C40.75 67 32.5 67 24 67 C24 75.91 24 84.82 24 94 C25.485 94.495 25.485 94.495 27 95 C27 101.27 27 107.54 27 114 C18.09 114 9.18 114 0 114 C0 107.73 0 101.46 0 95 C0.99 94.505 0.99 94.505 2 94 C2.33 69.58 2.66 45.16 3 20 C2.01 19.67 1.02 19.34 0 19 C0 12.73 0 6.46 0 0 Z " fill="#F6F5F5" transform="translate(547,254)"/>
<path d="M0 0 C14.19 0 28.38 0 43 0 C43 6.27 43 12.54 43 19 C42.01 19.495 42.01 19.495 41 20 C41.48694431 28.51243713 42.79803422 36.5694979 44.6875 44.875 C45.22701711 47.31992552 45.76471042 49.76525405 46.30078125 52.2109375 C46.57873535 53.47518555 46.85668945 54.73943359 47.14306641 56.04199219 C48.48109757 62.18281477 49.73427799 68.34094841 50.97280884 74.50250244 C51.36887958 76.46960272 51.76972985 78.4357387 52.1706543 80.40185547 C52.41082275 81.59955566 52.65099121 82.79725586 52.8984375 84.03125 C53.21820557 85.61776367 53.21820557 85.61776367 53.54443359 87.23632812 C54 90 54 90 54 94 C55.98 94.495 55.98 94.495 58 95 C58 101.27 58 107.54 58 114 C51.07 114 44.14 114 37 114 C36.34 110.98875 35.68 107.9775 35 104.875 C34.79117188 103.93769043 34.58234375 103.00038086 34.3671875 102.03466797 C34.12355469 100.89989014 34.12355469 100.89989014 33.875 99.7421875 C33.62363281 98.59532471 33.62363281 98.59532471 33.3671875 97.42529297 C33 95 33 95 33 89 C25.41 89.33 17.82 89.66 10 90 C8.35 97.92 6.7 105.84 5 114 C-1.6 114 -8.2 114 -15 114 C-15.061875 110.90625 -15.12375 107.8125 -15.1875 104.625 C-15.21481201 103.65127441 -15.24212402 102.67754883 -15.27026367 101.67431641 C-15.27775635 100.90780762 -15.28524902 100.14129883 -15.29296875 99.3515625 C-15.3086792 98.56604004 -15.32438965 97.78051758 -15.34057617 96.97119141 C-15.22818604 96.32069824 -15.1157959 95.67020508 -15 95 C-13.515 94.01 -13.515 94.01 -12 93 C-11.12321237 90.43201455 -11.12321237 90.43201455 -10.59765625 87.28125 C-10.35031738 86.01796875 -10.10297852 84.7546875 -9.84814453 83.453125 C-9.71434387 82.74542969 -9.58054321 82.03773438 -9.44268799 81.30859375 C-8.78974334 77.90352295 -8.08611423 74.50919423 -7.38851929 71.11303711 C-6.59527279 67.23959982 -5.816741 63.36325818 -5.03833008 59.48681641 C-4.63770691 57.49525858 -4.23536226 55.50404628 -3.83129883 53.51318359 C-1.570835 42.37474582 0.60143521 31.28555665 2 20 C1.34 19.67 0.68 19.34 0 19 C0 12.73 0 6.46 0 0 Z " fill="#F6F5F6" transform="translate(292,254)"/>
<path d="M0 0 C34.05678948 -2.52993293 34.05678948 -2.52993293 42.47167969 3.89355469 C48.08341371 9.55639158 49.60871071 14.96041258 49.9074707 22.85302734 C49.85988519 27.28170022 49.5013323 31.59941648 49 36 C42.4 36 35.8 36 29 36 C28.77213542 32.64713542 28.54427083 29.29427083 28.31640625 25.94140625 C28.32343886 23.11429756 28.32343886 23.11429756 27 22 C24.03212407 21.89969405 21.09262828 21.86128215 18.125 21.875 C17.29613281 21.87113281 16.46726562 21.86726563 15.61328125 21.86328125 C14.81535156 21.86457031 14.01742188 21.86585938 13.1953125 21.8671875 C12.09727295 21.86887939 12.09727295 21.86887939 10.97705078 21.87060547 C8.78734687 21.92999796 8.78734687 21.92999796 6 23 C6.1095693 26.45900478 6.24026848 29.91689109 6.375 33.375 C6.4059375 34.35984375 6.436875 35.3446875 6.46875 36.359375 C6.50742187 37.30039062 6.54609375 38.24140625 6.5859375 39.2109375 C6.63306885 40.51490479 6.63306885 40.51490479 6.68115234 41.84521484 C6.81229433 44.20961794 6.81229433 44.20961794 9 46 C11.49362868 46.14011609 11.49362868 46.14011609 14.390625 45.921875 C36.1274602 45.19678145 36.1274602 45.19678145 43.625 51.625 C51.40481851 59.63903973 50.85337851 72.67727107 50.71505737 83.14413452 C50.03259841 102.97649817 50.03259841 102.97649817 44.1875 109.4375 C36.99616972 115.75595297 26.11423465 115.25582675 17.0625 115.375 C15.88885391 115.39432083 15.88885391 115.39432083 14.6914978 115.41403198 C2.13314116 115.46535617 2.13314116 115.46535617 -2.37548828 112.36816406 C-4.12890625 110.3515625 -4.12890625 110.3515625 -5.578125 108.1550293 C-7.11176169 105.8306112 -8.76774416 104.44263522 -10.91015625 102.68359375 C-13.8443288 99.79535737 -14.48569303 97.82347821 -14.68359375 93.72265625 C-14.63754644 91.83471652 -14.55474 89.9473585 -14.4375 88.0625 C-14.40591797 87.09248047 -14.37433594 86.12246094 -14.34179688 85.12304688 C-14.25987726 82.74737798 -14.13433671 80.37328194 -14 78 C-7.4 78 -0.8 78 6 78 C6 82.29 6 86.58 6 91 C8.73902726 91.91300909 10.3744827 92.12846608 13.1953125 92.1328125 C13.99324219 92.13410156 14.79117187 92.13539063 15.61328125 92.13671875 C16.44214844 92.13285156 17.27101563 92.12898438 18.125 92.125 C18.96160156 92.12886719 19.79820312 92.13273437 20.66015625 92.13671875 C24.64715756 92.53149953 24.64715756 92.53149953 28 91 C28.25098924 87.52791193 28.18522096 84.0425938 28.1875 80.5625 C28.20586914 79.09200195 28.20586914 79.09200195 28.22460938 77.59179688 C28.22654297 76.65529297 28.22847656 75.71878906 28.23046875 74.75390625 C28.23457764 73.89095947 28.23868652 73.0280127 28.24291992 72.13891602 C28.200498 69.78530073 28.200498 69.78530073 26 68 C23.50637132 67.85988391 23.50637132 67.85988391 20.609375 68.078125 C-1.11224492 68.80111499 -1.11224492 68.80111499 -8.625 62.3125 C-15.89238408 54.81161707 -15.47240956 43.73532475 -15.6875 33.9375 C-15.72055237 33.1088443 -15.75360474 32.2801886 -15.78765869 31.42642212 C-16.0074027 23.88519028 -16.05075545 17.00685234 -11.02197266 10.99267578 C-7.90385899 7.71523627 -4.48836394 4.87254434 -1 2 C-0.67 1.34 -0.34 0.68 0 0 Z " fill="#F7F6F6" transform="translate(382,254)"/>
<path d="M0 0 C6.27 0 12.54 0 19 0 C20.85751193 4.90913867 22.71092014 9.81944042 24.55419922 14.73388672 C25.18237501 16.40502241 25.81289236 18.07527986 26.44580078 19.74462891 C27.35547001 22.1451846 28.2566534 24.54877947 29.15625 26.953125 C29.44060913 27.69806213 29.72496826 28.44299927 30.01794434 29.21051025 C31.32093553 32.71705094 32 35.21102695 32 39 C32.66 39 33.32 39 34 39 C34.1868335 37.69361572 34.1868335 37.69361572 34.37744141 36.36083984 C34.97464108 33.13689841 35.83705535 30.30145068 36.9609375 27.2265625 C37.35023438 26.1540625 37.73953125 25.0815625 38.140625 23.9765625 C38.54796875 22.87054688 38.9553125 21.76453125 39.375 20.625 C39.77460938 19.52671875 40.17421875 18.4284375 40.5859375 17.296875 C42.69211054 11.51875553 44.84050214 5.75866096 47 0 C53.27 0 59.54 0 66 0 C66 6.27 66 12.54 66 19 C64.35 19.66 62.7 20.32 61 21 C59.95879274 22.80180276 59.95879274 22.80180276 59.5625 25.0625 C58.36738391 29.71681322 56.927783 34.22699625 55.3125 38.75 C55.06298584 39.46929687 54.81347168 40.18859375 54.55639648 40.9296875 C53.10884578 45.06376778 51.5483421 49.11417811 49.83203125 53.14453125 C44.08794129 67.02681856 42.97607627 79.04677544 44 94 C44.99 94.33 45.98 94.66 47 95 C47 101.27 47 107.54 47 114 C37.76 114 28.52 114 19 114 C18.938125 110.90625 18.87625 107.8125 18.8125 104.625 C18.78518799 103.65127441 18.75787598 102.67754883 18.72973633 101.67431641 C18.72224365 100.90780762 18.71475098 100.14129883 18.70703125 99.3515625 C18.6913208 98.56604004 18.67561035 97.78051758 18.65942383 96.97119141 C18.77181396 96.32069824 18.8842041 95.67020508 19 95 C20.485 94.01 20.485 94.01 22 93 C25.92970641 78.000078 19.81963982 61.87212778 14.52929688 48.08789062 C13.22972138 44.69708984 11.98658527 41.2892197 10.75 37.875 C9.94584443 35.70196188 9.13866804 33.53003869 8.328125 31.359375 C7.95504211 30.3450238 7.58195923 29.33067261 7.1975708 28.2855835 C6.83749939 27.35570618 6.47742798 26.42582886 6.10644531 25.46777344 C5.79555969 24.65032654 5.48467407 23.83287964 5.16436768 22.99066162 C3.96746341 20.52851337 3.96746341 20.52851337 0 19 C0 12.73 0 6.46 0 0 Z " fill="#F6F5F6" transform="translate(196,254)"/>
<path d="M0 0 C3.8536681 1.57001293 6.08365507 4.08365507 9 7 C18.63686218 15.48794187 32.24813912 21.92601269 44.7734375 24.58984375 C51.73087468 26.08072315 55.38692726 28.69518047 60.453125 33.6484375 C66.11400059 38.87519686 73.01395867 42.79019723 80 46 C80 46.33 80 46.66 80 47 C55.35807218 48.40587861 29.07058971 38.25010109 10.44921875 22.265625 C4.37154378 16.64353332 -0.61139786 11.82903216 -1.1875 3.1875 C-1 1 -1 1 0 0 Z " fill="#5480B5" transform="translate(331,148)"/>
<path d="M0 0 C24.69949755 -1.31147775 51.08420255 7.73986869 70 24 C70 24.66 70 25.32 70 26 C64.68748417 25.43822597 59.84053663 24.53220029 54.703125 22.99609375 C54.0355719 22.79719543 53.3680188 22.59829712 52.68023682 22.39337158 C50.53416439 21.7498549 48.39182372 21.09500971 46.25 20.4375 C45.51789307 20.21446198 44.78578613 19.99142395 44.03149414 19.7616272 C28.74790908 15.091109 13.8869777 10.01749633 0 2 C0 1.34 0 0.68 0 0 Z " fill="#547FB3" transform="translate(332,108)"/>
<path d="M0 0 C3.96 0 7.92 0 12 0 C12.33 0.66 12.66 1.32 13 2 C13.99 1.34 14.98 0.68 16 0 C19.12026907 -0.32502803 21.14747535 -0.51151479 23.875 1.125 C25.4682099 3.78034983 25.20214032 5.96789518 25 9 C24.01 9 23.02 9 22 9 C22 7.02 22 5.04 22 3 C20.02 3 18.04 3 16 3 C15.87055003 5.83538907 15.87055003 5.83538907 17 9 C18.86480905 10.29093454 18.86480905 10.29093454 21.0625 11.375 C24.81482698 13.44989535 24.81482698 13.44989535 25.66796875 15.984375 C25.79440283 19.28370237 25.45818643 21.45696423 23.3125 24 C20.61141671 25.16803602 18.91462786 25.37367024 16 25 C15.01 24.34 14.02 23.68 13 23 C12.67 23.66 12.34 24.32 12 25 C8.04 25 4.08 25 0 25 C0 16.75 0 8.5 0 0 Z " fill="#4E79AC" transform="translate(552,402)"/>
<path d="M0 0 C5.6083565 1.48267641 11.17469482 2.71913266 16.8984375 3.6875 C20.09708137 4.28259653 23.14511748 5.15903655 26.25 6.125 C26.25 6.785 26.25 7.445 26.25 8.125 C24.3348421 8.94104999 22.41781166 9.75270632 20.5 10.5625 C19.43265625 11.01496094 18.3653125 11.46742188 17.265625 11.93359375 C6.81387331 16.06284798 -6.41902478 15.38938289 -16.75 11.125 C-16.75 10.465 -16.75 9.805 -16.75 9.125 C-17.41 9.125 -18.07 9.125 -18.75 9.125 C-19.5625 5.875 -19.5625 5.875 -19.75 2.125 C-14.48664872 -4.28970938 -7.09242225 -1.96171543 0 0 Z " fill="#5582B6" transform="translate(383.75,199.875)"/>
<path d="M0 0 C14.32646916 3.76317393 30.16965231 9.39108493 39 22 C38.75 24.3125 38.75 24.3125 38 26 C32.70638021 27.34635417 32.70638021 27.34635417 29.578125 25.8125 C28.80984375 25.214375 28.0415625 24.61625 27.25 24 C26.38890625 23.34773438 25.5278125 22.69546875 24.640625 22.0234375 C23.76921875 21.35570312 22.8978125 20.68796875 22 20 C20.33729453 18.86915373 18.67067582 17.74403758 17 16.625 C2.75910996 6.64285714 2.75910996 6.64285714 0 0 Z " fill="#5681B5" transform="translate(386,144)"/>
<path d="M0 0 C4.9774072 3.43305444 7.63888384 9.24143161 9 15 C9.1875 18.5 9.1875 18.5 9 21 C-0.94582593 17.15729453 -12.86028109 11.73841478 -18 2 C-12.12822032 0.26021343 -6.10774255 -1.31976346 0 0 Z " fill="#5480B4" transform="translate(357,140)"/>
<path d="M0 0 C3.5 0.5 3.5 0.5 5.1953125 2.5234375 C6.83611718 6.2668302 6.94075875 9.61371641 6.875 13.625 C6.88660156 14.34042969 6.89820313 15.05585938 6.91015625 15.79296875 C6.89359853 18.74576187 6.85573727 20.94833359 5.23046875 23.46875 C1.95923081 25.41820105 -0.76273244 24.85593024 -4.5 24.5 C-7.21382083 20.42926875 -6.83127641 17.27671888 -6.8125 12.5 C-6.82861328 11.68015625 -6.84472656 10.8603125 -6.86132812 10.015625 C-6.86197266 9.22671875 -6.86261719 8.4378125 -6.86328125 7.625 C-6.86626221 6.90570313 -6.86924316 6.18640625 -6.87231445 5.4453125 C-6.08466242 1.32989518 -3.92868611 0.56124087 0 0 Z " fill="#173558" transform="translate(449.5,401.5)"/>
<path d="M0 0 C2.97 0 5.94 0 9 0 C12 3 12 3 12.3125 6 C12 9 12 9 10 12 C10.66 12 11.32 12 12 12 C13.56430248 15.12860495 13.35627284 17.55602925 13 21 C11 23.4375 11 23.4375 8 25 C5.36 25 2.72 25 0 25 C0 16.75 0 8.5 0 0 Z " fill="#19385C" transform="translate(343,402)"/>
<path d="M0 0 C9 0 9 0 11.5625 1.5625 C13.54048353 4.91647207 13.40419442 7.160153 13 11 C12.5875 11.804375 12.175 12.60875 11.75 13.4375 C10.81746029 16.62367735 11.41946507 17.4116087 12.875 20.3125 C13.56648646 21.55122244 14.26966339 22.78377829 15 24 C13.68 24 12.36 24 11 24 C10.75765625 23.43410156 10.5153125 22.86820312 10.265625 22.28515625 C9.93046875 21.55167969 9.5953125 20.81820313 9.25 20.0625 C8.92515625 19.33160156 8.6003125 18.60070312 8.265625 17.84765625 C6.97377317 15.52359666 6.97377317 15.52359666 3 15 C3 18.3 3 21.6 3 25 C2.01 25 1.02 25 0 25 C0 16.75 0 8.5 0 0 Z " fill="#19385B" transform="translate(535,402)"/>
<path d="M0 0 C0.33 0 0.66 0 1 0 C1.85961509 4.05573717 2.71395467 8.11254649 3.56347656 12.17041016 C3.85305254 13.54994491 4.1440541 14.92918123 4.43652344 16.30810547 C4.85729461 18.2931722 5.2728833 20.27926488 5.6875 22.265625 C5.93886719 23.45961914 6.19023437 24.65361328 6.44921875 25.88378906 C7 29 7 29 7 33 C2.71 33 -1.58 33 -6 33 C-6.38622948 26.16670921 -4.94425123 19.79394811 -3.5625 13.125 C-3.33240234 11.97257812 -3.10230469 10.82015625 -2.86523438 9.6328125 C-1.13702234 1.13702234 -1.13702234 1.13702234 0 0 Z " fill="#5884B9" transform="translate(313,289)"/>
<path d="M0 0 C3.82637978 0.25985601 7.37814259 0.70067896 11 2 C12.625 5.5 12.625 5.5 13.12109375 7.625 C14.96193924 12.59937358 19.346324 16.26206732 23 20 C19.4735864 21.1754712 16.727703 20.94703104 13.05859375 20.7421875 C12.37925781 20.82726562 11.69992187 20.91234375 11 21 C10.34 21.99 9.68 22.98 9 24 C7.68 24 6.36 24 5 24 C4.83564453 22.37191406 4.83564453 22.37191406 4.66796875 20.7109375 C4.50841392 19.26555848 4.34822389 17.82024949 4.1875 16.375 C4.08211914 15.30572266 4.08211914 15.30572266 3.97460938 14.21484375 C3.44036204 9.556207 2.28333845 6.16631071 0 2 C0 1.34 0 0.68 0 0 Z " fill="#537FB3" transform="translate(367,140)"/>
<path d="M0 0 C9 0 9 0 11.5625 1.5625 C13.54771911 4.92874109 13.48071685 7.15426517 13 11 C11.5 13.4375 11.5 13.4375 10 15 C11.32 17.97 12.64 20.94 14 24 C10 23 10 23 8.83984375 21.40625 C8.54207031 20.7771875 8.24429687 20.148125 7.9375 19.5 C7.08192533 17.60447356 7.08192533 17.60447356 6 16 C5.01 15.67 4.02 15.34 3 15 C3 17.97 3 20.94 3 24 C2.01 24 1.02 24 0 24 C0 16.08 0 8.16 0 0 Z " fill="#173559" transform="translate(269,402)"/>
<path d="M0 0 C0.99 0 1.98 0 3 0 C4.98 4.29 6.96 8.58 9 13 C9.33 8.71 9.66 4.42 10 0 C10.99 0 11.98 0 13 0 C13 7.92 13 15.84 13 24 C11.68 23.67 10.36 23.34 9 23 C6.8994254 19.14710396 5.55941869 15.11513266 4 11 C3.67 15.29 3.34 19.58 3 24 C2.01 24 1.02 24 0 24 C0 16.08 0 8.16 0 0 Z " fill="#163356" transform="translate(414,402)"/>
<path d="M0 0 C0.99 0 1.98 0 3 0 C4.98 4.29 6.96 8.58 9 13 C9.33 8.71 9.66 4.42 10 0 C10.99 0 11.98 0 13 0 C13 7.92 13 15.84 13 24 C11.68 23.67 10.36 23.34 9 23 C6.8994254 19.14710396 5.55941869 15.11513266 4 11 C3.67 15.29 3.34 19.58 3 24 C2.01 24 1.02 24 0 24 C0 16.08 0 8.16 0 0 Z " fill="#153255" transform="translate(307,402)"/>
<path d="M0 0 C0.99 0 1.98 0 3 0 C4.98 4.29 6.96 8.58 9 13 C9.33 8.71 9.66 4.42 10 0 C10.99 0 11.98 0 13 0 C13 7.92 13 15.84 13 24 C12.01 24 11.02 24 10 24 C8.02 19.71 6.04 15.42 4 11 C3.67 15.29 3.34 19.58 3 24 C2.01 24 1.02 24 0 24 C0 16.08 0 8.16 0 0 Z " fill="#153255" transform="translate(285,402)"/>
<path d="M0 0 C1.9375 1.125 1.9375 1.125 3 3 C3.1875 6.1875 3.1875 6.1875 3 9 C2.01 9 1.02 9 0 9 C-0.66 7.02 -1.32 5.04 -2 3 C-3.32 3.33 -4.64 3.66 -6 4 C-6 9.28 -6 14.56 -6 20 C-3.525 20.99 -3.525 20.99 -1 22 C-0.67 19.36 -0.34 16.72 0 14 C-1.65 14 -3.3 14 -5 14 C-5 13.01 -5 12.02 -5 11 C-2.36 11 0.28 11 3 11 C3.62068966 20.03448276 3.62068966 20.03448276 1.3125 23.625 C-1.49130501 25.2921273 -2.79616552 25.6407669 -6 25 C-8.44359205 23.31862932 -9.81093555 22.00892802 -10.36865234 19.03271484 C-10.50298672 16.65535667 -10.49610892 14.31777823 -10.4375 11.9375 C-10.44458984 11.12216797 -10.45167969 10.30683594 -10.45898438 9.46679688 C-10.39549931 3.52361776 -10.39549931 3.52361776 -8.69165039 1.26782227 C-5.88164428 -0.83816153 -3.37412707 -0.36151361 0 0 Z " fill="#19375B" transform="translate(383,402)"/>
<path d="M0 0 C0.99 0 1.98 0 3 0 C4.98 7.92 6.96 15.84 9 24 C7.68 23.67 6.36 23.34 5 23 C5 21.35 5 19.7 5 18 C2.69 18 0.38 18 -2 18 C-2.33 19.98 -2.66 21.96 -3 24 C-3.99 24 -4.98 24 -6 24 C-5.55327444 18.52761188 -4.41043351 13.3629393 -3 8.0625 C-2.82178711 7.38759521 -2.64357422 6.71269043 -2.45996094 6.01733398 C-1.1297533 1.1297533 -1.1297533 1.1297533 0 0 Z " fill="#183659" transform="translate(498,402)"/>
<path d="M0 0 C3.96 0 7.92 0 12 0 C12 0.99 12 1.98 12 3 C9.03 3 6.06 3 3 3 C3 5.31 3 7.62 3 10 C5.97 10 8.94 10 12 10 C12 10.99 12 11.98 12 13 C9.03 13 6.06 13 3 13 C3 15.64 3 18.28 3 21 C6.3 21 9.6 21 13 21 C12.67 22.32 12.34 23.64 12 25 C8.04 25 4.08 25 0 25 C0 16.75 0 8.5 0 0 Z " fill="#1E3E63" transform="translate(478,402)"/>
<path d="M0 0 C1.299375 0.144375 2.59875 0.28875 3.9375 0.4375 C6.22763653 3.8727048 6.11592973 5.422831 5.9375 9.4375 C4.9475 9.4375 3.9575 9.4375 2.9375 9.4375 C2.9375 7.4575 2.9375 5.4775 2.9375 3.4375 C0.9575 3.7675 -1.0225 4.0975 -3.0625 4.4375 C-3.0625 10.3775 -3.0625 16.3175 -3.0625 22.4375 C-1.4125 22.1075 0.2375 21.7775 1.9375 21.4375 C2.2675 19.1275 2.5975 16.8175 2.9375 14.4375 C1.6175 14.4375 0.2975 14.4375 -1.0625 14.4375 C-1.0625 13.4475 -1.0625 12.4575 -1.0625 11.4375 C1.2475 11.4375 3.5575 11.4375 5.9375 11.4375 C5.99166188 13.04129341 6.03036638 14.64561406 6.0625 16.25 C6.08570313 17.14332031 6.10890625 18.03664063 6.1328125 18.95703125 C5.9375 21.4375 5.9375 21.4375 3.9375 24.4375 C-2.92678457 25.09124139 -2.92678457 25.09124139 -5.79296875 23.44140625 C-7.84957518 20.1951321 -7.49370144 16.71866205 -7.4375 13 C-7.44910156 12.23623047 -7.46070313 11.47246094 -7.47265625 10.68554688 C-7.45494964 7.29473198 -7.34077509 4.98720034 -5.79296875 1.9296875 C-3.7062834 0.13033354 -2.72759717 -0.07647469 0 0 Z " fill="#19375B" transform="translate(329.0625,401.5625)"/>
<path d="M0 0 C0.99 0 1.98 0 3 0 C3.33 6.6 3.66 13.2 4 20 C5.32 20.33 6.64 20.66 8 21 C9.14654482 18.70691037 9.19729117 17.20090344 9.31640625 14.6484375 C9.35830078 13.79765625 9.40019531 12.946875 9.44335938 12.0703125 C9.48267578 11.18085938 9.52199219 10.29140625 9.5625 9.375 C9.60568359 8.4778125 9.64886719 7.580625 9.69335938 6.65625 C9.79956861 4.43765717 9.90161194 2.2189512 10 0 C10.99 0 11.98 0 13 0 C13.11632513 3.41637953 13.18728897 6.83224897 13.25 10.25 C13.30027344 11.70212891 13.30027344 11.70212891 13.3515625 13.18359375 C13.4500899 20.3268306 13.4500899 20.3268306 11.2109375 23.67578125 C9 25 9 25 5.375 24.9375 C2 24 2 24 0 21 C-0.22705078 18.73168945 -0.22705078 18.73168945 -0.1953125 16.11328125 C-0.18886719 15.17548828 -0.18242187 14.23769531 -0.17578125 13.27148438 C-0.15902344 12.29501953 -0.14226562 11.31855469 -0.125 10.3125 C-0.11597656 9.32443359 -0.10695312 8.33636719 -0.09765625 7.31835938 C-0.0740843 4.87866235 -0.04118022 2.43945303 0 0 Z " fill="#163457" transform="translate(253,402)"/>
<path d="M0 0 C0.99 0 1.98 0 3 0 C3.33 7.26 3.66 14.52 4 22 C5.65 21.34 7.3 20.68 9 20 C9.33 13.4 9.66 6.8 10 0 C10.99 0 11.98 0 13 0 C13.11632513 3.41637953 13.18728897 6.83224897 13.25 10.25 C13.30027344 11.70212891 13.30027344 11.70212891 13.3515625 13.18359375 C13.4500899 20.3268306 13.4500899 20.3268306 11.2109375 23.67578125 C9 25 9 25 5.375 24.9375 C2 24 2 24 0 21 C-0.22705078 18.73168945 -0.22705078 18.73168945 -0.1953125 16.11328125 C-0.18886719 15.17548828 -0.18242187 14.23769531 -0.17578125 13.27148438 C-0.15902344 12.29501953 -0.14226562 11.31855469 -0.125 10.3125 C-0.11597656 9.32443359 -0.10695313 8.33636719 -0.09765625 7.31835938 C-0.0740843 4.87866235 -0.04118022 2.43945303 0 0 Z " fill="#173558" transform="translate(358,402)"/>
<path d="M0 0 C2 2 2 2 2.125 5.625 C2.08375 6.73875 2.0425 7.8525 2 9 C1.34 9 0.68 9 0 9 C-0.33 7.02 -0.66 5.04 -1 3 C-2.65 3.33 -4.3 3.66 -6 4 C-5.96219702 6.37233611 -5.96219702 6.37233611 -5 9 C-3.03277992 10.38123963 -1.03131672 11.71488126 1 13 C2.82539731 15.46031811 3.03639638 16.50258275 2.8125 19.5625 C1.89602971 22.31191087 1.49831143 23.50101314 -1 25 C-4.5625 24.9375 -4.5625 24.9375 -8 24 C-10.23892859 21.17700309 -10 19.7208921 -10 16 C-9.01 16 -8.02 16 -7 16 C-6.67 17.98 -6.34 19.96 -6 22 C-4.35 21.34 -2.7 20.68 -1 20 C-1 18.68 -1 17.36 -1 16 C-2.71501449 14.49478253 -2.71501449 14.49478253 -4.9375 13.375 C-8.91341463 11.17317073 -8.91341463 11.17317073 -10 9 C-10.44396083 3.78346028 -10.44396083 3.78346028 -8.9375 1.125 C-5.93267901 -0.61973477 -3.39189869 -0.30835443 0 0 Z " fill="#183559" transform="translate(398,402)"/>
<path d="M0 0 C1.875 1.125 1.875 1.125 3 3 C3.1875 6.1875 3.1875 6.1875 3 9 C2.01 9 1.02 9 0 9 C0 7.02 0 5.04 0 3 C-1.98 3 -3.96 3 -6 3 C-6.12944997 5.83538907 -6.12944997 5.83538907 -5 9 C-3.13519095 10.29093454 -3.13519095 10.29093454 -0.9375 11.375 C2.81482698 13.44989535 2.81482698 13.44989535 3.66796875 15.984375 C3.79440283 19.28370237 3.45818643 21.45696423 1.3125 24 C-1.43794976 25.18938368 -3.03974275 25.53132822 -6 25 C-8.40311451 22.76261752 -8.96341425 21.53659096 -9.1875 18.25 C-9.125625 17.5075 -9.06375 16.765 -9 16 C-8.01 16 -7.02 16 -6 16 C-5.67 17.65 -5.34 19.3 -5 21 C-3.68 21 -2.36 21 -1 21 C-0.67 19.02 -0.34 17.04 0 15 C-0.7425 14.731875 -1.485 14.46375 -2.25 14.1875 C-7.01834862 12.12844037 -7.01834862 12.12844037 -9 10 C-9.43386742 6.52906068 -9.66235303 4.14071911 -7.875 1.0625 C-5.11019567 -0.50422245 -3.11811483 -0.38976435 0 0 Z " fill="#183659" transform="translate(574,402)"/>
<path d="M0 0 C0.99 0 1.98 0 3 0 C3.33 6.6 3.66 13.2 4 20 C5.65 20.33 7.3 20.66 9 21 C9.33 14.07 9.66 7.14 10 0 C10.66 0 11.32 0 12 0 C12.05787784 3.62493334 12.0935542 7.24974857 12.125 10.875 C12.14175781 11.90753906 12.15851562 12.94007813 12.17578125 14.00390625 C12.18222656 14.99003906 12.18867187 15.97617187 12.1953125 16.9921875 C12.20578613 17.90339355 12.21625977 18.81459961 12.22705078 19.75341797 C12 22 12 22 10 24 C8.125 24.30078125 8.125 24.30078125 6 24.3125 C5.29875 24.32925781 4.5975 24.34601563 3.875 24.36328125 C3.25625 24.24339844 2.6375 24.12351562 2 24 C-0.16926659 20.74610012 -0.24080049 19.86604043 -0.1953125 16.11328125 C-0.18886719 15.17548828 -0.18242188 14.23769531 -0.17578125 13.27148438 C-0.15902344 12.29501953 -0.14226563 11.31855469 -0.125 10.3125 C-0.11597656 9.32443359 -0.10695313 8.33636719 -0.09765625 7.31835938 C-0.0740843 4.87866235 -0.04118022 2.43945303 0 0 Z " fill="#173558" transform="translate(520,402)"/>
<path d="M0 0 C15.14887892 -0.42600897 15.14887892 -0.42600897 19.6875 3.0703125 C21.37623508 5.31492288 22.77982788 7.47286528 24 10 C23.67 10.66 23.34 11.32 23 12 C13.7350795 9.49391495 6.7285758 7.01810143 0 0 Z " fill="#527CAF" transform="translate(400,178)"/>
<path d="M0 0 C3.96 0 7.92 0 12 0 C12 0.99 12 1.98 12 3 C9.03 3 6.06 3 3 3 C3 5.64 3 8.28 3 11 C5.97 11 8.94 11 12 11 C12 11.99 12 12.98 12 14 C9.03 14 6.06 14 3 14 C3 17.3 3 20.6 3 24 C2.01 24 1.02 24 0 24 C0 16.08 0 8.16 0 0 Z " fill="#122F51" transform="translate(464,402)"/>
<path d="M0 0 C2.5 0.125 2.5 0.125 3.5 1.125 C3.62658222 3.78322657 3.68520214 6.40387424 3.6875 9.0625 C3.69974609 9.80435547 3.71199219 10.54621094 3.72460938 11.31054688 C3.72988478 13.25013629 3.62188902 15.1892371 3.5 17.125 C2.84 17.785 2.18 18.445 1.5 19.125 C-2.03571429 18.58928571 -2.03571429 18.58928571 -3.5 17.125 C-3.59981214 14.4476862 -3.63879875 11.80195825 -3.625 9.125 C-3.62886719 8.37476563 -3.63273437 7.62453125 -3.63671875 6.8515625 C-3.62467845 0.18123392 -3.62467845 0.18123392 0 0 Z " fill="#507DB2" transform="translate(449.5,404.875)"/>
<path d="M0 0 C3.96 0 7.92 0 12 0 C12 0.99 12 1.98 12 3 C8.7 3 5.4 3 2 3 C2 5.64 2 8.28 2 11 C4.97 11 7.94 11 11 11 C11 11.66 11 12.32 11 13 C8.03 13 5.06 13 2 13 C2 15.97 2 18.94 2 22 C4.97 22 7.94 22 11 22 C11 22.66 11 23.32 11 24 C7.37 24 3.74 24 0 24 C0 16.08 0 8.16 0 0 Z " fill="#112D4F" transform="translate(552,402)"/>
<path d="M0 0 C4.29 0 8.58 0 13 0 C13 0.99 13 1.98 13 3 C11.35 3 9.7 3 8 3 C8 9.93 8 16.86 8 24 C7.01 24 6.02 24 5 24 C5 17.07 5 10.14 5 3 C3.35 3 1.7 3 0 3 C0 2.01 0 1.02 0 0 Z " fill="#163356" transform="translate(505,402)"/>
<path d="M0 0 C4.29 0 8.58 0 13 0 C13 0.99 13 1.98 13 3 C11.35 3 9.7 3 8 3 C8 9.93 8 16.86 8 24 C7.01 24 6.02 24 5 24 C5 17.07 5 10.14 5 3 C3.35 3 1.7 3 0 3 C0 2.01 0 1.02 0 0 Z " fill="#143153" transform="translate(429,402)"/>
<path d="M0 0 C4.29 0 8.58 0 13 0 C13 0.99 13 1.98 13 3 C11.35 3 9.7 3 8 3 C8 9.93 8 16.86 8 24 C7.01 24 6.02 24 5 24 C5 17.07 5 10.14 5 3 C3.35 3 1.7 3 0 3 C0 2.01 0 1.02 0 0 Z " fill="#143153" transform="translate(238,402)"/>
<path d="M0 0 C0.99 0 1.98 0 3 0 C3 8.25 3 16.5 3 25 C2.01 25 1.02 25 0 25 C0 16.75 0 8.5 0 0 Z " fill="#1F3F65" transform="translate(301,402)"/>
<path d="M0 0 C0.99 0 1.98 0 3 0 C3 8.25 3 16.5 3 25 C2.01 25 1.02 25 0 25 C0 16.75 0 8.5 0 0 Z " fill="#1D3C61" transform="translate(408,402)"/>
<path d="M0 0 C0.33 0 0.66 0 1 0 C1 2.31 1 4.62 1 7 C1.66 7 2.32 7 3 7 C3 7.99 3 8.98 3 10 C4.32 10 5.64 10 7 10 C7.04241723 12.33294775 7.04092937 14.66702567 7 17 C6 18 6 18 3.4375 18.0625 C2.633125 18.041875 1.82875 18.02125 1 18 C-0.59412284 14.81175432 -0.10174735 11.37103338 -0.0625 7.875 C-0.05798828 7.12089844 -0.05347656 6.36679687 -0.04882812 5.58984375 C-0.03703499 3.72652873 -0.01909942 1.86325445 0 0 Z " fill="#4874AA" transform="translate(325,406)"/>
<path d="M0 0 C0.99 0 1.98 0 3 0 C3.33 1.98 3.66 3.96 4 6 C3.34 6 2.68 6 2 6 C2.33 8.97 2.66 11.94 3 15 C1.68 15 0.36 15 -1 15 C-3.03164375 10.82978388 -3.07903196 8.40594062 -1.625 4.125 C-1.10060086 2.74332228 -0.56452075 1.36577601 0 0 Z " fill="#1C3B5F" transform="translate(498,402)"/>
<path d="M0 0 C1.99954746 -0.04254356 4.00041636 -0.04080783 6 0 C7 1 7 1 7.0625 4.5625 C7.041875 5.696875 7.02125 6.83125 7 8 C4.69 8.33 2.38 8.66 0 9 C0 6.03 0 3.06 0 0 Z " fill="#537EB3" transform="translate(538,405)"/>
<path d="M0 0 C1.99954746 -0.04254356 4.00041636 -0.04080783 6 0 C7 1 7 1 7.25 3.9375 C7.1675 4.948125 7.085 5.95875 7 7 C4 9 4 9 0 9 C0 6.03 0 3.06 0 0 Z " fill="#4A78AD" transform="translate(346,415)"/>
<path d="M0 0 C2.375 -0.125 2.375 -0.125 5 0 C5.66 0.66 6.32 1.32 7 2 C6.43181818 7.56818182 6.43181818 7.56818182 5 9 C3.33382885 9.04063832 1.66611905 9.042721 0 9 C0 6.03 0 3.06 0 0 Z " fill="#4B79B0" transform="translate(272,405)"/>
<path d="M0 0 C0.99 0.33 1.98 0.66 3 1 C2.69369024 3.83336529 2.37605841 5.56126519 0.5 7.75 C-3.1910574 9.5955287 -6.92080486 9.74722936 -11 10 C-8.42799744 7.94239795 -5.85640063 5.88903685 -3.25 3.875 C-0.93200395 2.19802359 -0.93200395 2.19802359 0 0 Z " fill="#5580B3" transform="translate(436,191)"/>
<path d="M0 0 C3.63 0 7.26 0 11 0 C11 0.99 11 1.98 11 3 C8.03 3 5.06 3 2 3 C2 5.64 2 8.28 2 11 C1.34 11 0.68 11 0 11 C0 7.37 0 3.74 0 0 Z " fill="#122E50" transform="translate(479,402)"/>
<path d="M0 0 C1.66611905 -0.042721 3.33382885 -0.04063832 5 0 C6 1 6 1 6.125 3.5 C6 6 6 6 5 7 C3.33382885 7.04063832 1.66611905 7.042721 0 7 C0 4.69 0 2.38 0 0 Z " fill="#4B78AD" transform="translate(346,405)"/>
<path d="M0 0 C2.475 0.99 2.475 0.99 5 2 C4.35546875 2.17273438 3.7109375 2.34546875 3.046875 2.5234375 C0.59554118 3.92982628 0.59554118 3.92982628 0.390625 7.4765625 C0.32418219 8.858573 0.2780748 10.2416781 0.25 11.625 C0.20552734 12.68460937 0.20552734 12.68460937 0.16015625 13.765625 C0.08944643 15.50980047 0.04245965 17.25490827 0 19 C-0.33 19 -0.66 19 -1 19 C-1.06058594 18.09636719 -1.12117188 17.19273437 -1.18359375 16.26171875 C-1.26738281 15.08222656 -1.35117187 13.90273438 -1.4375 12.6875 C-1.51871094 11.51574219 -1.59992188 10.34398437 -1.68359375 9.13671875 C-1.8867371 5.97409042 -1.8867371 5.97409042 -3 3 C-2.01 2.01 -1.02 1.02 0 0 Z " fill="#1F3F65" transform="translate(446,402)"/>
<path d="M0 0 C2.34765625 0.171875 2.34765625 0.171875 5.0625 0.75 C5.96097656 0.93046875 6.85945313 1.1109375 7.78515625 1.296875 C8.51605469 1.52890625 9.24695313 1.7609375 10 2 C10.33 2.66 10.66 3.32 11 4 C6.17639811 4.19294408 2.50353262 3.75747614 -2 2 C-1.34 1.34 -0.68 0.68 0 0 Z " fill="#4B75A6" transform="translate(352,129)"/>
<path d="M0 0 C1.9375 0.75 1.9375 0.75 4 2 C4.75 4.125 4.75 4.125 5 6 C4.34 6 3.68 6 3 6 C2.67 6.66 2.34 7.32 2 8 C1.87625 7.071875 1.87625 7.071875 1.75 6.125 C1.18741541 3.81562433 1.18741541 3.81562433 -1.0625 2.75 C-1.701875 2.5025 -2.34125 2.255 -3 2 C-2.01 2 -1.02 2 0 2 C0 1.34 0 0.68 0 0 Z " fill="#1A395D" transform="translate(350,402)"/>
<path d="M0 0 C1.88343932 3.76687864 2.22057835 5.02958963 2 9 C0.68 9 -0.64 9 -2 9 C-1.34 6.03 -0.68 3.06 0 0 Z " fill="#4E79AD" transform="translate(499,408)"/>
<path d="M0 0 C1.98 0 3.96 0 6 0 C6 1.98 6 3.96 6 6 C5.01 6.495 5.01 6.495 4 7 C4 5.35 4 3.7 4 2 C2.68 2 1.36 2 0 2 C0 1.34 0 0.68 0 0 Z " fill="#122E50" transform="translate(379,414)"/>
<path d="M0 0 C0.33 0.66 0.66 1.32 1 2 C1.66 2 2.32 2 3 2 C2.67 3.98 2.34 5.96 2 8 C1.01 8 0.02 8 -1 8 C-0.67 5.36 -0.34 2.72 0 0 Z " fill="#1C3B5F" transform="translate(493,418)"/>
</svg>
